<svg version="1.1" id="Layer_1" xmlns="http://www.w3.org/2000/svg" xmlns:xlink="http://www.w3.org/1999/xlink" x="0px" y="0px"
	 width="100%" viewBox="0 0 1024 1024" enable-background="new 0 0 1024 1024" xml:space="preserve">
<path fill="#000000" opacity="1.000000" stroke="none" 
	d="
M612.063843,202.815781 
	C658.772278,221.891403 694.973328,252.969223 722.151855,294.797241 
	C740.572449,323.146698 752.278381,354.177307 756.904175,387.559906 
	C759.903687,409.206818 759.081116,431.037018 755.410583,452.707977 
	C750.479797,481.819366 742.087219,509.697754 727.274658,535.431763 
	C706.291321,571.886414 677.709290,600.830811 641.583191,622.347839 
	C614.091125,638.722473 584.228088,647.856750 552.558105,651.397888 
	C545.782043,652.155518 538.964783,652.539246 532.171021,653.145996 
	C528.495667,653.474243 526.649292,652.290955 526.664917,648.180725 
	C526.782471,617.183289 526.358643,586.177979 526.938110,555.190735 
	C527.222656,539.971802 533.973450,528.191528 549.086365,522.079895 
	C583.823425,508.032440 618.429565,493.660736 653.062073,479.355988 
	C656.335815,478.003754 659.178894,478.013672 662.590637,479.371857 
	C679.014160,485.909882 695.323364,478.763794 701.399841,462.686462 
	C706.543823,449.076294 700.471619,433.718933 687.290222,427.001495 
	C674.124878,420.292175 658.248474,424.507843 650.342224,436.883698 
	C648.366882,439.975769 646.259460,443.212982 645.904602,446.860046 
	C645.438354,451.652649 642.590027,453.546417 638.620728,455.177765 
	C603.960327,469.423065 569.245483,483.544556 534.762024,498.208801 
	C511.167572,508.242523 499.454407,526.683533 499.360687,552.308472 
	C499.247314,583.305969 499.328705,614.304138 499.310089,645.302063 
	C499.306427,651.432434 498.786896,651.974060 492.688873,651.037659 
	C471.228729,647.742432 450.339172,642.283997 430.081970,634.411987 
	C427.428375,633.380859 426.622620,631.768188 426.641418,629.120789 
	C426.719635,618.122131 426.474457,607.117432 426.751526,596.125183 
	C426.948059,588.329041 430.964233,582.247803 436.806580,577.316406 
	C439.225311,575.274719 441.747528,573.355347 444.157104,571.303223 
	C454.569977,562.435242 459.588745,551.087524 459.613312,537.466248 
	C459.629242,528.633545 459.693146,519.800598 459.650269,510.968201 
	C459.589294,498.407928 464.444794,488.406067 474.753754,481.064850 
	C480.600708,476.901093 486.680481,473.142365 492.931580,469.625671 
	C495.344971,468.267944 497.680389,468.510773 500.174316,469.039215 
	C514.480286,472.070404 526.575928,466.677246 533.595215,454.180664 
	C539.259949,444.095551 537.669312,431.899078 529.417236,422.143982 
	C521.992737,413.367279 509.407837,410.012909 498.529114,413.911194 
	C487.416656,417.893188 479.109222,428.462524 479.375092,439.427185 
	C479.498291,444.508026 477.698578,447.241821 473.431396,449.667572 
	C461.380463,456.518127 449.846100,464.029236 441.613495,475.713348 
	C434.832275,485.337646 431.657227,495.963135 431.401794,507.547089 
	C431.221802,515.708923 431.171295,523.886108 431.459686,532.042419 
	C431.809662,541.940918 427.423645,549.375122 420.028015,555.291321 
	C415.742432,558.719604 411.110168,561.710815 406.703369,564.992004 
	C401.238159,569.061157 398.659088,574.438721 398.879669,581.380676 
	C399.059143,587.029236 398.527039,592.697327 398.453888,598.358582 
	C398.424957,600.599976 397.616211,602.128052 395.675781,603.240356 
	C376.458344,614.256897 357.260864,625.308167 338.042999,636.323853 
	C337.507324,636.630981 336.807861,636.652283 336.274506,636.784607 
	C334.276215,635.323120 334.913971,633.333130 334.903839,631.602600 
	C334.797974,613.437622 334.835693,595.271301 334.625610,577.107727 
	C334.584229,573.528870 335.586334,571.224731 338.838257,569.498718 
	C349.870789,563.642761 360.716125,557.432922 371.768341,551.615540 
	C385.495239,544.390381 395.732269,534.253174 399.873138,518.908264 
	C401.173279,514.090332 401.678467,509.105499 401.675232,504.089203 
	C401.663940,486.590393 401.758240,469.090973 401.642090,451.592926 
	C401.541321,436.405975 407.445007,424.940155 421.312836,417.880798 
	C431.093597,412.901978 441.058807,408.189636 448.623138,399.750153 
	C457.160095,390.225555 462.393738,379.336731 462.764496,366.473541 
	C463.220398,350.655060 463.361511,334.827332 463.613586,319.003204 
	C463.772400,309.033661 467.276062,300.294006 474.312683,293.395233 
	C480.721680,287.111877 487.898438,281.618286 494.591492,275.614624 
	C497.234192,273.244110 499.710510,274.202393 502.466461,275.037140 
	C518.147766,279.786926 532.183044,273.189331 538.390381,258.257599 
	C542.806519,247.634689 540.773438,237.684906 533.822144,229.215317 
	C526.477234,220.266113 516.228210,217.214783 504.962799,219.724854 
	C490.633118,222.917709 483.082855,232.452789 482.332977,247.374817 
	C482.178680,250.445312 480.420258,252.122620 478.373352,253.921906 
	C469.117432,262.058167 459.783966,270.114716 450.750885,278.493713 
	C440.618530,287.892365 436.675354,300.114136 436.371460,313.546143 
	C436.066223,327.038666 436.017670,340.548340 436.316833,354.040314 
	C436.678864,370.368103 428.707794,381.467041 415.235870,389.372437 
	C409.347107,392.827942 403.147247,395.793182 397.459442,399.543396 
	C382.273071,409.556274 374.794464,424.106262 374.392792,442.059967 
	C373.990356,460.049988 374.113586,478.057343 374.316193,496.053558 
	C374.473602,510.035645 368.774048,520.468140 356.619324,527.320068 
	C348.205200,532.063354 339.673767,536.599731 331.289185,541.393677 
	C328.097168,543.218750 327.140625,540.936890 325.924072,538.983582 
	C315.821960,522.763428 308.286713,505.389801 302.781555,487.120636 
	C294.684448,460.249847 291.188446,432.769989 292.833679,404.764984 
	C295.229919,363.977081 308.108551,326.521912 330.386841,292.398529 
	C352.006378,259.284027 380.147797,232.970352 415.032928,214.175949 
	C440.459686,200.477249 467.472290,191.435745 496.195465,187.605316 
	C536.072205,182.287460 574.485474,187.821106 612.063843,202.815781 
M661.543396,361.944641 
	C662.054749,354.459076 662.427368,346.914368 661.214600,339.520172 
	C656.506897,310.817688 633.228394,284.870392 597.911682,282.636993 
	C550.496338,279.638519 519.759766,321.653259 524.825867,359.705078 
	C528.795532,389.521423 555.592285,416.971222 587.227295,419.606537 
	C623.945557,422.665314 654.523254,399.276062 661.543396,361.944641 
M362.920502,352.606750 
	C354.407288,352.114410 347.939606,356.089203 344.294739,364.053558 
	C341.340515,370.508636 342.580536,377.762573 347.524933,382.949982 
	C352.888336,388.576996 360.647003,390.368652 367.671936,387.602386 
	C374.727264,384.824127 379.118652,377.511108 378.721802,369.200836 
	C378.342133,361.250153 372.938690,355.357758 362.920502,352.606750 
M610.456116,558.863953 
	C609.687256,558.547241 608.944641,558.119690 608.145508,557.931030 
	C600.965210,556.236084 594.456055,557.386719 589.633118,563.321411 
	C585.131042,568.861328 583.516235,575.273315 586.747681,581.967834 
	C590.002686,588.711121 595.211304,592.968201 603.234070,592.754944 
	C611.251648,592.541870 617.644226,587.337280 620.058777,578.906616 
	C622.252197,571.247986 619.081055,564.257690 610.456116,558.863953 
M483.679657,579.136292 
	C484.055176,574.869812 482.509827,571.479004 478.567474,569.737793 
	C475.517151,568.390503 472.325562,568.653809 469.681000,571.028259 
	C466.692413,573.711548 465.370972,577.130005 466.767975,580.939514 
	C468.166595,584.753296 471.426117,586.562134 475.406311,586.619934 
	C479.895752,586.685181 482.354980,583.964661 483.679657,579.136292 
M675.920532,503.301727 
	C669.732605,502.984497 667.200867,504.542938 665.740051,509.568512 
	C664.582642,513.550171 666.407043,517.730103 670.114197,519.590271 
	C674.256104,521.668579 679.749512,519.782898 681.960327,515.523804 
	C684.260864,511.092041 682.306824,506.620819 675.920532,503.301727 
M703.270569,394.016571 
	C703.290649,395.173950 703.109375,396.378448 703.367371,397.480133 
	C704.260559,401.294678 706.673157,403.577240 710.648010,403.880890 
	C715.166199,404.226013 718.477234,402.147827 720.136475,398.062836 
	C721.648560,394.340271 719.952942,391.164307 717.067200,388.809540 
	C712.261353,384.887939 707.453430,386.531586 703.270569,394.016571 
M346.272400,485.057312 
	C351.723450,486.486847 356.783997,481.631989 357.204773,478.051056 
	C357.713684,473.719910 355.088226,469.758240 350.772919,468.630402 
	C346.770905,467.584412 342.418213,469.619110 340.781708,473.300781 
	C338.826752,477.698792 340.516724,481.744629 346.272400,485.057312 
M400.219696,310.559418 
	C401.778412,314.857849 404.842804,317.205597 409.375610,316.347870 
	C413.629883,315.542877 416.544495,312.872620 416.667786,308.159302 
	C416.785156,303.672638 414.152527,301.106049 410.173309,299.830383 
	C404.866333,298.129089 400.019012,302.984924 400.219696,310.559418 
M693.342468,312.797852 
	C690.866150,317.655182 691.514160,320.943970 695.528015,323.890106 
	C699.041992,326.469360 703.918091,326.189270 706.806396,323.011078 
	C709.743530,319.779144 709.762329,316.105835 707.507996,312.524628 
	C705.175537,308.819305 700.583679,308.007538 696.065857,310.355804 
	C695.213440,310.798889 694.535278,311.577423 693.342468,312.797852 
M491.162964,323.298615 
	C485.020691,323.658112 481.117889,327.477081 481.918335,332.344635 
	C482.643555,336.754639 487.358002,339.753113 492.110504,338.665192 
	C495.638000,337.857727 498.183868,335.647858 498.523224,331.992371 
	C498.954956,327.341766 496.172302,324.692230 491.162964,323.298615 
z"/>
<path fill="#000000" opacity="1.000000" stroke="none" 
	d="
M586.645752,748.211121 
	C586.614624,738.262512 585.306030,738.875916 595.418579,738.896240 
	C608.974731,738.923523 607.167175,737.270996 607.165649,750.955688 
	C607.164612,760.950989 606.871521,770.950439 607.083923,780.940063 
	C607.210938,786.911011 610.264832,791.405212 615.898621,793.756104 
	C621.130737,795.939270 626.086182,795.147217 630.360352,791.452026 
	C633.924377,788.370789 635.483154,784.308899 635.858337,779.565186 
	C637.318970,761.094604 636.282898,742.597534 636.642151,724.117065 
	C636.800537,715.967285 636.683777,715.906189 644.869568,715.881104 
	C659.155029,715.837402 656.917542,714.182739 657.136292,727.934631 
	C657.332764,740.277100 655.669495,738.543213 667.650330,738.667053 
	C675.037292,738.743347 675.068909,738.684021 675.005310,746.111511 
	C674.886292,760.023682 675.080872,757.156738 663.717468,757.372559 
	C656.009521,757.518982 656.338684,757.410583 656.537231,765.223694 
	C656.909607,779.875000 657.492065,794.565674 656.836670,809.188354 
	C655.787842,832.590698 634.283813,847.592224 610.764343,842.001099 
	C605.414917,840.729431 600.220520,838.963562 595.314392,836.376282 
	C592.813354,835.057495 592.250183,833.541077 593.956787,831.257629 
	C594.155762,830.991394 594.329163,830.704651 594.499329,830.418457 
	C600.292725,820.673523 600.292480,820.673279 611.084656,823.754150 
	C621.117432,826.618164 630.576538,823.267578 634.973083,815.249817 
	C636.261414,812.900452 637.291199,810.460876 636.428894,807.125122 
	C631.421204,810.683594 626.445801,813.857727 620.291199,814.298340 
	C603.472839,815.502380 586.942383,800.600098 586.667542,783.668762 
	C586.478271,772.009094 586.644043,760.343750 586.645752,748.211121 
z"/>
<path fill="#000000" opacity="1.000000" stroke="none" 
	d="
M502.968048,728.078491 
	C493.328979,728.067566 489.573608,730.419861 486.812805,738.709595 
	C491.814880,738.709595 496.526917,738.897095 501.216248,738.651489 
	C505.101898,738.448059 506.727905,739.817871 506.401123,743.795105 
	C506.142792,746.939148 506.178131,750.128723 506.361725,753.281860 
	C506.568848,756.839050 504.874786,758.007385 501.590546,757.926392 
	C497.262817,757.819641 492.919067,758.084595 488.604187,757.824829 
	C485.217621,757.620911 484.140198,758.964600 484.380463,762.158386 
	C484.853149,768.442139 485.477722,774.656250 484.483856,781.042175 
	C481.467346,800.424561 464.970673,815.053284 445.416077,815.158997 
	C426.042633,815.263733 408.577362,800.588135 405.890167,781.555420 
	C402.678986,758.811707 419.736206,733.021667 451.443695,738.075378 
	C455.410431,738.707642 459.375580,738.941895 463.373535,739.010193 
	C466.152557,739.057617 467.326965,738.033630 467.787323,735.010315 
	C470.478607,717.336426 484.459198,705.966553 501.986725,706.650757 
	C505.138000,706.773743 506.533569,707.757996 506.413818,711.023438 
	C506.249115,715.514343 506.366638,720.015442 506.360474,724.512207 
	C506.357727,726.501465 506.059479,728.254883 502.968048,728.078491 
M427.348480,769.056458 
	C424.342682,779.021729 428.031769,789.181213 436.105896,793.173828 
	C445.469879,797.804260 455.021759,795.463501 460.749176,787.134705 
	C467.401062,777.461548 465.044861,764.900635 455.526154,759.290649 
	C445.022552,753.100281 433.288910,756.896118 427.348480,769.056458 
z"/>
<path fill="#000000" opacity="1.000000" stroke="none" 
	d="
M270.662415,785.999878 
	C270.663574,772.181458 270.654572,758.863037 270.670654,745.544617 
	C270.678802,738.789917 270.699280,738.790100 277.680420,738.781738 
	C278.512817,738.780762 279.345215,738.778137 280.177612,738.774597 
	C289.245392,738.735840 289.245392,738.735779 290.558960,748.022400 
	C298.313477,738.913269 308.176819,736.559509 319.086456,737.883911 
	C327.107300,738.857666 334.034027,742.306213 339.506409,748.383423 
	C353.048615,763.422546 354.006409,786.227905 341.738159,801.081238 
	C328.529755,817.072815 311.632202,818.916443 290.179291,806.323059 
	C290.179291,815.552734 290.254639,824.470703 290.154510,833.386719 
	C290.079651,840.050903 287.041351,843.799927 281.608551,844.329163 
	C274.874969,844.985107 270.725739,841.162537 270.689392,833.946716 
	C270.609741,818.131470 270.663422,802.315552 270.662415,785.999878 
M308.319458,756.881165 
	C307.039642,757.229797 305.729675,757.494263 304.484680,757.940186 
	C294.025360,761.686951 288.986847,773.862549 293.588104,784.207092 
	C297.692474,793.434570 310.866272,797.989990 320.040283,793.354065 
	C327.978455,789.342651 332.020172,779.258606 329.453918,769.867371 
	C327.117249,761.316467 318.723846,755.873291 308.319458,756.881165 
z"/>
<path fill="#000000" opacity="1.000000" stroke="none" 
	d="
M744.425537,739.028687 
	C760.650391,735.540466 775.188477,737.562012 788.088135,749.303040 
	C783.831665,754.451233 778.487610,758.248718 775.154053,764.245239 
	C768.548767,759.301819 762.015625,755.157959 753.844543,756.768372 
	C749.392822,757.645630 745.393250,759.719910 742.572388,763.620911 
	C736.440674,772.100220 736.863708,782.333984 743.759155,789.712585 
	C751.440002,797.931641 759.975342,797.377747 775.076965,787.508179 
	C779.005981,791.640564 782.104736,796.633545 786.797180,800.173523 
	C789.019897,801.850342 787.247498,803.443054 785.739929,804.555969 
	C772.137817,814.597473 757.497253,818.821472 741.261047,811.585083 
	C725.893982,804.735962 716.499084,790.077698 717.871094,773.154175 
	C719.210571,756.632263 728.328308,745.116150 744.425537,739.028687 
z"/>
<path fill="#000000" opacity="1.000000" stroke="none" 
	d="
M573.404907,814.034424 
	C558.139404,810.097778 550.129456,800.512329 549.906189,784.801147 
	C549.560547,760.479004 549.834167,736.148438 549.757385,711.821716 
	C549.746887,708.499695 550.880737,706.851624 554.370300,706.936768 
	C573.907776,707.413513 570.067078,704.062988 570.271851,721.908264 
	C570.497498,741.567139 570.277893,761.230835 570.337097,780.892151 
	C570.356201,787.224976 571.963074,792.850037 578.519958,795.573364 
	C580.266846,796.298950 580.500000,797.599243 580.476440,799.190125 
	C580.434448,802.022095 580.427917,804.854797 580.429626,807.687195 
	C580.433655,814.391846 580.439087,814.391846 573.404907,814.034424 
z"/>
<path fill="#000000" opacity="1.000000" stroke="none" 
	d="
M369.022766,813.321716 
	C359.734589,813.301025 359.743073,813.301025 359.736572,804.299866 
	C359.722290,784.472107 359.819550,764.642944 359.588196,744.817627 
	C359.534637,740.227051 360.971344,738.433655 365.569916,738.804443 
	C369.378723,739.111511 373.388153,738.268982 377.016937,739.144714 
	C381.978973,740.342224 377.562683,745.939575 380.891815,748.801758 
	C389.804260,739.343689 400.553925,735.355713 413.558960,739.154053 
	C413.949493,742.138245 411.430511,743.010803 410.362457,744.747681 
	C409.841217,745.595459 409.012115,746.277893 408.598175,747.164001 
	C405.088593,754.677246 400.791840,760.034241 391.218842,761.255737 
	C384.215088,762.149353 380.177887,768.765869 380.180878,776.594971 
	C380.184601,786.258484 380.132751,795.922058 380.116577,805.585571 
	C380.103668,813.311523 380.111450,813.311768 372.511261,813.323730 
	C371.511505,813.325256 370.511780,813.322754 369.022766,813.321716 
z"/>
<path fill="#000000" opacity="1.000000" stroke="none" 
	d="
M707.286743,755.003906 
	C707.267273,772.790527 707.121582,790.079468 707.313049,807.364563 
	C707.362915,811.869568 706.046326,813.440247 701.390259,813.409790 
	C686.599182,813.312988 686.589294,813.484558 686.598816,798.587463 
	C686.610352,780.634888 686.795471,762.680176 686.554626,744.731079 
	C686.490906,739.982910 688.192444,738.521057 692.610046,738.830078 
	C696.083740,739.073120 699.589355,738.935852 703.078491,738.860840 
	C705.999634,738.797974 707.343201,740.063599 707.275879,743.035645 
	C707.189331,746.856628 707.275024,750.681519 707.286743,755.003906 
z"/>
<path fill="#000000" opacity="1.000000" stroke="none" 
	d="
M515.917297,764.999817 
	C515.926392,757.683899 516.036621,750.864868 515.863647,744.052979 
	C515.769714,740.355652 516.849304,738.717407 520.928589,738.669067 
	C536.315430,738.486938 536.305481,738.358765 536.285522,753.649109 
	C536.262146,771.604004 536.133850,789.560181 536.324768,807.512878 
	C536.373718,812.115479 534.798523,813.492310 530.271484,813.472290 
	C515.806519,813.408081 515.801392,813.567993 515.825439,798.915283 
	C515.843689,787.776733 515.874939,776.638184 515.917297,764.999817 
z"/>
<path fill="#000000" opacity="1.000000" stroke="none" 
	d="
M684.192871,717.953735 
	C684.685608,711.825867 687.373291,707.883301 693.242859,706.597656 
	C698.608459,705.422485 703.733093,707.521240 706.632263,712.036621 
	C710.224365,717.630981 708.227966,725.000000 702.235474,728.265381 
	C696.082153,731.618347 688.395691,729.083374 685.419189,722.627075 
	C684.805420,721.295898 684.596619,719.778076 684.192871,717.953735 
z"/>
<path fill="#000000" opacity="1.000000" stroke="none" 
	d="
M516.286011,712.602722 
	C520.420471,706.517334 525.303101,704.603271 530.920898,706.592407 
	C535.969116,708.379822 539.313538,713.416565 538.892944,718.598511 
	C538.448975,724.068848 534.482605,728.445068 528.926575,729.684814 
	C520.519226,731.560669 512.359924,721.395447 516.286011,712.602722 
z"/>
<path fill="#000000" opacity="1.000000" stroke="none" 
	d="
M581.643677,390.534485 
	C562.897766,385.364563 551.196960,367.740601 552.775757,347.537476 
	C554.227478,328.960114 568.076050,313.762665 585.338501,311.668213 
	C590.402039,311.053864 594.581421,311.945068 597.083984,316.947845 
	C598.418579,319.615784 601.013062,320.600983 603.715820,320.764191 
	C612.019836,321.265686 618.899658,325.707062 625.815430,329.378204 
	C631.502625,332.397186 632.728699,339.110809 633.769836,345.296509 
	C638.742615,374.842682 610.562561,399.567596 581.643677,390.534485 
z"/>
</svg>