<?xml version="1.0" encoding="UTF-8" standalone="no"?>
<svg
   version="1.1"
   id="Layer_1"
   x="0px"
   y="0px"
   width="725.97675"
   viewBox="0 0 725.97675 172.43243"
   enable-background="new 0 0 1024 1024"
   xml:space="preserve"
   sodipodi:docname="logo-horz-dark.svg"
   height="172.43243"
   inkscape:version="1.2.2 (b0a84865, 2022-12-01)"
   xmlns:inkscape="http://www.inkscape.org/namespaces/inkscape"
   xmlns:sodipodi="http://sodipodi.sourceforge.net/DTD/sodipodi-0.dtd"
   xmlns="http://www.w3.org/2000/svg"
   xmlns:svg="http://www.w3.org/2000/svg"><defs
   id="defs6984" /><sodipodi:namedview
   id="namedview6982"
   pagecolor="#ffffff"
   bordercolor="#000000"
   borderopacity="0.25"
   inkscape:showpageshadow="2"
   inkscape:pageopacity="0.0"
   inkscape:pagecheckerboard="0"
   inkscape:deskcolor="#d1d1d1"
   showgrid="false"
   inkscape:zoom="1.0029297"
   inkscape:cx="-227.33398"
   inkscape:cy="202.40701"
   inkscape:window-width="2719"
   inkscape:window-height="1196"
   inkscape:window-x="292"
   inkscape:window-y="64"
   inkscape:window-maximized="0"
   inkscape:current-layer="Layer_1" />
<path
   fill="#000000"
   opacity="1"
   stroke="none"
   d="m 125.52566,6.3377954 c 18.34356,7.0348296 32.56062,18.4958996 43.2343,33.9214896 7.23423,10.45489 11.83144,21.89855 13.6481,34.20959 1.17799,7.98308 0.85494,16.03375 -0.58657,24.0257 -1.93644,10.735885 -5.23242,21.017045 -11.04968,30.507395 -8.24068,13.44397 -19.46555,24.11826 -33.65317,32.05345 -10.79682,6.03873 -22.52478,9.40733 -34.96237,10.71325 -2.661134,0.27941 -5.338434,0.42092 -8.006514,0.64468 -1.4434,0.12105 -2.16852,-0.31533 -2.16239,-1.83112 0.0462,-11.43143 -0.12028,-22.86576 0.10729,-34.29342 0.11175,-5.61254 2.76296,-9.95694 8.698174,-12.21083 13.64211,-5.1805 27.23281,-10.48058 40.83385,-15.75598 1.28568,-0.49869 2.40223,-0.49503 3.74211,0.006 6.44992,2.41113 12.85495,-0.22425 15.24134,-6.15335 2.02017,-5.019245 -0.36454,-10.682825 -5.5412,-13.160125 -5.17036,-2.47431 -11.40542,-0.91963 -14.5104,3.64442 -0.77577,1.14031 -1.6034,2.33415 -1.74276,3.67914 -0.18311,1.76744 -1.30172,2.46584 -2.86056,3.06746 -13.612,5.253475 -27.24539,10.461285 -40.787904,15.869255 -9.26613,3.70029 -13.86618,10.50108 -13.90299,19.95121 -0.0445,11.43145 -0.0126,22.86314 -0.0199,34.29475 -0.002,2.26079 -0.20547,2.46054 -2.60032,2.1152 -8.42793,-1.21523 -16.63178,-3.22822 -24.58729,-6.13131 -1.04213,-0.38027 -1.35857,-0.975 -1.35118,-1.95132 0.0307,-4.05616 -0.0656,-8.11454 0.0432,-12.16833 0.0772,-2.87511 1.65443,-5.11778 3.94887,-6.93641 0.94989,-0.75295 1.94043,-1.46079 2.88673,-2.21758 4.0894,-3.27039 6.06039,-7.45527 6.07004,-12.47861 0.006,-3.25738 0.0313,-6.51485 0.0145,-9.77211 -0.024,-4.63206 1.88293,-8.3206 5.93151,-11.02794 2.29625,-1.53554 4.68392,-2.92171 7.13889,-4.21861 0.9478,-0.50072 1.86497,-0.41116 2.8444,-0.21628 5.61831,1.11786 10.36857,-0.87106 13.12522,-5.479635 2.22468,-3.71925 1.6,-8.21714 -1.6408,-11.81468 -2.91578,-3.23673 -7.85819,-4.47377 -12.13053,-3.03614 -4.36414,1.4685 -7.62668,5.36633 -7.52226,9.40994 0.0484,1.87375 -0.65841,2.88193 -2.33424,3.77651 -4.7327,2.5264 -9.26253,5.296395 -12.49568,9.605335 -2.66316,3.54931 -3.91008,7.46784 -4.01039,11.73984 -0.0707,3.00997 -0.0905,6.0256 0.0227,9.03354 0.13744,3.65043 -1.58506,6.39206 -4.48951,8.57387 -1.68305,1.2643 -3.50226,2.36742 -5.23292,3.57748 -2.14632,1.50065 -3.15919,3.48382 -3.07256,6.04392 0.0705,2.08311 -0.13849,4.17342 -0.16721,6.26121 -0.0113,0.8266 -0.32898,1.39013 -1.09104,1.80033 -7.54716,4.06275 -15.08649,8.13831 -22.63382,12.20074 -0.21038,0.11326 -0.48507,0.12112 -0.69453,0.16992 -0.78479,-0.53898 -0.53432,-1.27286 -0.5383,-1.91106 -0.0416,-6.69899 -0.0268,-13.39848 -0.10927,-20.09695 -0.0163,-1.31983 0.3773,-2.16957 1.65441,-2.8061 4.33275,-2.15959 8.59198,-4.4497 12.93247,-6.59507 5.39089,-2.66454 9.41123,-6.403 11.03745,-12.06199 0.5106,-1.77678 0.709,-3.61512 0.70773,-5.46506 -0.004,-6.45332 0.0326,-12.90686 -0.013,-19.359905 -0.0396,-5.60074 2.27895,-9.82918 7.72519,-12.43257 3.84115,-1.83612 7.75473,-3.57396 10.72544,-6.68633 3.35267,-3.51254 5.40805,-7.52819 5.55366,-12.27195 0.17904,-5.83364 0.23446,-11.67069 0.33346,-17.50641 0.0624,-3.67662 1.43834,-6.89969 4.2018,-9.44386 2.51697,-2.31721 5.33546,-4.34317 7.96399,-6.55724 1.03786,-0.87421 2.01037,-0.52081 3.0927,-0.21297 6.15844,1.75166 11.67044,-0.68145 14.10822,-6.18806 1.73432,-3.91758 0.93588,-7.58692 -1.79407,-10.71039 -2.88453,-3.30035 -6.90957,-4.42564 -11.33378,-3.49996 -5.62762,1.17749 -8.5928,4.69389 -8.88729,10.19693 -0.0606,1.13235 -0.75117,1.75092 -1.55505,2.41448 -3.63503,3.00054 -7.30051,5.97168 -10.84803,9.06174 -3.97922,3.46609 -5.52781,7.97331 -5.64715,12.92685 -0.11988,4.97585 -0.13895,9.95803 -0.0214,14.93369 0.14218,6.02146 -2.98826,10.11459 -8.27902,13.03 -2.31266,1.27434 -4.7475,2.36788 -6.98124,3.7509 -5.96407,3.69261 -8.9011,9.05845 -9.05885,15.67953 -0.15804,6.634475 -0.10965,13.275335 -0.0301,19.912095 0.0618,5.15639 -2.17654,9.00375 -6.95,11.53065 -3.30444,1.74926 -6.65494,3.42221 -9.94778,5.19015 -1.25358,0.67306 -1.62924,-0.16845 -2.10701,-0.88881 C 9.1840256,124.33021 6.2247456,117.92305 4.0627356,111.18564 0.88279562,101.27606 -0.49017438,91.141865 0.15595562,80.814005 1.0970156,65.771995 6.1547756,51.959045 14.904016,39.374815 c 8.49053,-12.21217 19.54237,-21.91629 33.24263,-28.8474 9.98572,-5.0518896 20.59424,-8.3862796 31.87455,-9.79887964 15.66058,-1.96115996 30.746434,0.0796 45.504394,5.60940004 m 19.43185,58.6845196 c 0.20082,-2.76057 0.34716,-5.54295 -0.12912,-8.26983 -1.84883,-10.58508 -10.99088,-20.15408 -24.86064,-20.97773 -18.62118,-1.10579 -30.692204,14.38866 -28.702614,28.42164 1.55898,10.99586 12.082734,21.11896 24.506594,22.09083 14.42018,1.12803 26.4288,-7.4976 29.18578,-21.26491 M 27.680796,61.578775 c -3.34335,-0.18157 -5.88337,1.28428 -7.3148,4.22142 -1.1602,2.38055 -0.67321,5.0557 1.26857,6.96874 2.10635,2.07517 5.15337,2.7359 7.91224,1.71575 2.7708,-1.02459 4.4954,-3.72153 4.33955,-6.78624 -0.14911,-2.93211 -2.27117,-5.10514 -6.20556,-6.11967 M 124.8942,137.64358 c -0.30195,-0.1168 -0.5936,-0.27448 -0.90744,-0.34405 -2.81988,-0.62507 -5.37619,-0.20073 -7.27027,1.9879 -1.76808,2.04304 -2.40225,4.4077 -1.13319,6.87654 1.27833,2.48683 3.32388,4.05678 6.47462,3.97813 3.1487,-0.0786 5.65923,-1.99795 6.60748,-5.10706 0.86141,-2.8244 -0.38398,-5.40233 -3.7712,-7.39146 m -49.788274,7.47616 c 0.14747,-1.57342 -0.45943,-2.82391 -2.00769,-3.46604 -1.19794,-0.49686 -2.45135,-0.39976 -3.48994,0.47591 -1.17369,0.98956 -1.69265,2.25023 -1.14402,3.65513 0.54928,1.40647 1.82938,2.07354 3.39249,2.09486 1.76312,0.024 2.72892,-0.97923 3.24916,-2.75986 M 150.6037,117.153 c -2.43015,-0.11699 -3.42443,0.45774 -3.99813,2.3111 -0.45454,1.46838 0.26195,3.00988 1.71784,3.69589 1.62663,0.76645 3.78403,0.071 4.65227,-1.49966 0.90348,-1.63437 0.13608,-3.2833 -2.37198,-4.50733 m 10.74104,-40.302855 c 0.008,0.42682 -0.0633,0.87103 0.038,1.27731 0.35078,1.40675 1.29826,2.24853 2.85929,2.36051 1.7744,0.12728 3.07473,-0.63913 3.72636,-2.14562 0.59383,-1.37283 -0.0721,-2.54408 -1.20539,-3.41248 -1.88737,-1.44624 -3.77556,-0.84008 -5.41828,1.92028 M 21.142736,110.42457 c 2.14076,0.52719 4.12817,-1.26321 4.29341,-2.58381 0.19987,-1.59727 -0.83121,-3.05828 -2.52594,-3.47421 -1.57169,-0.38574 -3.28111,0.36463 -3.9238,1.72237 -0.76776,1.62193 -0.10407,3.11398 2.15633,4.33565 m 21.18645,-64.352415 c 0.61214,1.58521 1.8156,2.45102 3.59575,2.1347 1.67076,-0.29686 2.8154,-1.28162 2.86382,-3.01983 0.0461,-1.65461 -0.9878,-2.60114 -2.55054,-3.07159 -2.08418,-0.62741 -3.98785,1.16335 -3.90903,3.95672 m 115.116614,0.82551 c -0.97251,1.79131 -0.71803,3.00417 0.85831,4.09067 1.38003,0.95119 3.295,0.8479 4.42931,-0.32418 1.15348,-1.19189 1.16087,-2.54655 0.27553,-3.86725 -0.91601,-1.36648 -2.71935,-1.66584 -4.49361,-0.79984 -0.33477,0.16341 -0.6011,0.45052 -1.06954,0.9006 m -79.400934,3.87253 c -2.41222,0.13258 -3.94495,1.54096 -3.63059,3.33605 0.28481,1.62635 2.13629,2.73214 4.00271,2.33093 1.38534,-0.29778 2.38517,-1.11275 2.51844,-2.46084 0.16955,-1.71508 -0.92327,-2.69219 -2.89056,-3.20614 z"
   id="path6957"
   style="stroke-width:0.380567" />
<path
   fill="#000000"
   opacity="1"
   stroke="none"
   d="m 524.53443,53.073825 c -0.031,-9.94861 -1.3398,-9.3352 8.7728,-9.31488 13.5561,0.0273 11.7486,-1.62524 11.7471,12.05945 -0.001,9.9953 -0.2942,19.99475 -0.082,29.98437 0.127,5.97095 3.1809,10.46515 8.8147,12.81604 5.2321,2.183175 10.1875,1.391125 14.4617,-2.30407 3.564,-3.08124 5.1228,-7.14313 5.498,-11.88684 1.4606,-18.47059 0.4245,-36.96766 0.7838,-55.44812 0.1584,-8.14979 0.042,-8.21088 8.2274,-8.23597 14.2855,-0.0437 12.048,-1.69836 12.2667,12.05353 0.1965,12.34247 -1.4668,10.60858 10.5141,10.73242 7.3869,0.0763 7.4186,0.017 7.355,7.44446 -0.1191,13.91217 0.076,11.04523 -11.2879,11.26105 -7.7079,0.14642 -7.3788,0.038 -7.1802,7.85113 0.3724,14.65131 0.9548,29.34198 0.2994,43.964665 -1.0488,23.40235 -22.5528,38.40387 -46.0723,32.81275 -5.3494,-1.27167 -10.5438,-3.03754 -15.45,-5.62482 -2.501,-1.31878 -3.0642,-2.8352 -1.3576,-5.11865 0.199,-0.26624 0.3724,-0.55298 0.5426,-0.83917 5.7934,-9.74494 5.7931,-9.74518 16.5853,-6.66431 10.0328,2.86401 19.4919,-0.48657 23.8884,-8.50433 1.2884,-2.34937 2.3181,-4.78894 1.4558,-8.1247 -5.0077,3.55847 -9.9831,6.73261 -16.1377,7.17322 -16.8183,1.20404 -33.3488,-13.69824 -33.6236,-30.629585 -0.1893,-11.65967 -0.024,-23.32501 -0.022,-35.45764 z"
   id="path6959" />
<path
   fill="#000000"
   opacity="1"
   stroke="none"
   d="m 440.85673,32.941195 c -9.6391,-0.0109 -13.3945,2.34137 -16.1553,10.63111 5.0021,0 9.7141,0.1875 14.4035,-0.0581 3.8856,-0.20343 5.5116,1.16638 5.1848,5.14362 -0.2583,3.14404 -0.223,6.33361 -0.039,9.48675 0.2072,3.55719 -1.4869,4.72552 -4.7711,4.64453 -4.3278,-0.10675 -8.6715,0.15821 -12.9864,-0.10156 -3.3866,-0.20392 -4.464,1.13977 -4.2237,4.33356 0.4727,6.28375 1.0972,12.49786 0.1034,18.88379 -3.0165,19.382385 -19.5132,34.011105 -39.06781,34.116825 -19.37345,0.10473 -36.83872,-14.57087 -39.52591,-33.603585 -3.21118,-22.74371 13.84604,-48.53375 45.55352,-43.48004 3.96674,0.63226 7.93189,0.86652 11.9298,0.93481 2.7791,0.0474 3.9535,-0.97656 4.4138,-3.99988 2.6913,-17.67388 16.6719,-29.04376 34.1994,-28.35955 3.1513,0.12298 4.5469,1.10724 4.4271,4.37268 -0.1647,4.4909 -0.047,8.992 -0.053,13.48877 0,1.98926 -0.301,3.74267 -3.3924,3.56628 m -75.61956,40.97797 c -3.0058,9.96527 0.68329,20.12475 8.75742,24.11737 9.36398,4.630435 18.91586,2.289675 24.64328,-6.03912 6.65186,-9.67316 4.29566,-22.23408 -5.22303,-27.84406 -10.5036,-6.19037 -22.23724,-2.39453 -28.17767,9.76581 z"
   id="path6961" />
<path
   fill="#000000"
   opacity="1"
   stroke="none"
   d="m 208.55105,90.862585 c 0.001,-13.81842 -0.008,-27.13684 0.008,-40.45526 0.008,-6.7547 0.0286,-6.75452 7.00977,-6.76288 0.8324,-9.8e-4 1.66479,-0.004 2.49719,-0.007 9.06778,-0.0388 9.06778,-0.0388 10.38135,9.2478 7.75452,-9.10913 17.61786,-11.46289 28.5275,-10.13849 8.02084,0.97376 14.94757,4.4223 20.41995,10.49951 13.5422,15.03913 14.5,37.84448 2.23175,52.697825 -13.2084,15.99157 -30.10596,17.8352 -51.55887,5.24182 0,9.22967 0.0754,18.14764 -0.0248,27.06366 -0.0749,6.66418 -3.11316,10.41321 -8.54596,10.94244 -6.73358,0.65595 -10.88281,-3.16662 -10.91916,-10.38244 -0.0797,-15.81525 -0.026,-31.63117 -0.027,-47.946845 m 37.65705,-29.11872 c -1.27982,0.34864 -2.58979,0.6131 -3.83478,1.05903 -10.45932,3.74676 -15.49783,15.92236 -10.89658,26.2669 4.10437,9.22748 17.27817,13.782905 26.45218,9.14697 7.93817,-4.01141 11.97989,-14.09545 9.41364,-23.48669 -2.33667,-8.5509 -10.73007,-13.99408 -21.13446,-12.98621 z"
   id="path6963" />
<path
   fill="#000000"
   opacity="1"
   stroke="none"
   d="m 682.31423,43.891395 c 16.2248,-3.48822 30.7629,-1.46668 43.6625,10.27435 -4.2564,5.14819 -9.6005,8.94568 -12.934,14.9422 -6.6053,-4.94342 -13.1385,-9.08728 -21.3095,-7.47687 -4.4518,0.87726 -8.4513,2.95154 -11.2722,6.85254 -6.1317,8.47931 -5.7087,18.71307 1.1868,26.09167 7.6808,8.219065 16.2162,7.665175 31.3178,-2.2044 3.929,4.13238 7.0278,9.125375 11.7202,12.665345 2.2227,1.67682 0.4503,3.26953 -1.0573,4.38245 -13.6021,10.0415 -28.2426,14.2655 -44.4788,7.02911 -15.3671,-6.84912 -24.762,-21.507385 -23.39,-38.430915 1.3395,-16.52191 10.4572,-28.03802 26.5545,-34.12548 z"
   id="path6965" />
<path
   fill="#000000"
   opacity="1"
   stroke="none"
   d="m 511.29353,118.89713 c -15.2655,-3.93664 -23.2754,-13.52209 -23.4987,-29.233275 -0.3456,-24.32215 -0.072,-48.65271 -0.1488,-72.97943 -0.011,-3.32203 1.1234,-4.9701 4.6129,-4.88495 19.5375,0.47674 15.6968,-2.8737796 15.9016,14.97149 0.2256,19.65888 0.01,39.32257 0.065,58.98389 0.019,6.33283 1.6259,11.95789 8.1828,14.681215 1.7469,0.72559 1.9801,2.02588 1.9565,3.61676 -0.042,2.83198 -0.049,5.66468 -0.047,8.49707 0,6.70466 0.01,6.70466 -7.0247,6.34723 z"
   id="path6967" />
<path
   fill="#000000"
   opacity="1"
   stroke="none"
   d="m 306.91141,118.18443 c -9.28818,-0.0207 -9.2797,-0.0207 -9.2862,-9.02185 -0.0143,-19.827765 0.083,-39.656935 -0.14837,-59.482245 -0.0536,-4.59058 1.38314,-6.38397 5.98172,-6.01319 3.8088,0.30707 7.81823,-0.53546 11.44702,0.34027 4.96203,1.19751 0.54574,6.79486 3.87487,9.65705 8.91245,-9.45807 19.66211,-13.44605 32.66715,-9.64771 0.39053,2.98419 -2.12845,3.85675 -3.1965,5.59363 -0.52124,0.84778 -1.35035,1.53021 -1.76428,2.41632 -3.50959,7.51325 -7.80634,12.87024 -17.37934,14.09174 -7.00375,0.89361 -11.04095,7.51013 -11.03796,15.33923 0.004,9.66351 -0.0481,19.327095 -0.0643,28.990605 -0.0129,7.72595 -0.005,7.7262 -7.60532,7.73816 -0.99976,0.002 -1.99948,-9.8e-4 -3.48849,-0.002 z"
   id="path6969" />
<path
   fill="#000000"
   opacity="1"
   stroke="none"
   d="m 645.17543,59.866615 c -0.019,17.78662 -0.1652,35.07556 0.026,52.360655 0.05,4.50501 -1.2668,6.07569 -5.9228,6.04523 -14.7911,-0.0968 -14.801,0.0748 -14.7915,-14.82233 0.012,-17.952575 0.1967,-35.907285 -0.044,-53.856385 -0.064,-4.74817 1.6378,-6.21002 6.0554,-5.901 3.4737,0.24304 6.9793,0.10577 10.4685,0.0308 2.9211,-0.0629 4.2647,1.20276 4.1974,4.17481 -0.086,3.82098 -9e-4,7.64587 0.011,11.96826 z"
   id="path6971" />
<path
   fill="#000000"
   opacity="1"
   stroke="none"
   d="m 453.80593,69.862525 c 0.01,-7.31592 0.1193,-14.13495 -0.054,-20.94684 -0.094,-3.69733 0.9857,-5.33557 5.065,-5.38391 15.3868,-0.18213 15.3768,-0.31031 15.3569,14.98004 -0.023,17.95489 -0.1517,35.91107 0.039,53.863775 0.049,4.6026 -1.5263,5.97943 -6.0533,5.95941 -14.465,-0.0642 -14.4701,0.0957 -14.446,-14.55701 0.018,-11.138555 0.05,-22.277105 0.092,-33.915465 z"
   id="path6973" />
<path
   fill="#000000"
   opacity="1"
   stroke="none"
   d="m 622.08153,22.816445 c 0.4927,-6.12787 3.1804,-10.07044 9.05,-11.35608 5.3656,-1.17517 10.4902,0.92358 13.3894,5.43896 3.5921,5.59436 1.5957,12.96338 -4.3968,16.22876 -6.1533,3.35297 -13.8398,0.81799 -16.8163,-5.63831 -0.6138,-1.33117 -0.8226,-2.84899 -1.2263,-4.67333 z"
   id="path6975" />
<path
   fill="#000000"
   opacity="1"
   stroke="none"
   d="m 454.17463,17.465425 c 4.1345,-6.08539 9.0171,-7.9994496 14.6349,-6.01031 5.0482,1.78741 8.3927,6.82415 7.9721,12.0061 -0.444,5.47034 -4.4104,9.84656 -9.9664,11.0863 -8.4074,1.87586 -16.5667,-8.28936 -12.6406,-17.08209 z"
   id="path6977" />
<path
   fill="#000000"
   opacity="1"
   stroke="none"
   d="m 113.5789,75.565855 c -7.36198,-1.9066 -11.95718,-8.40607 -11.33715,-15.8567 0.57013,-6.85108 6.00881,-12.45568 12.7882,-13.22809 1.98858,-0.22656 3.62992,0.1021 4.61274,1.94706 0.52413,0.98389 1.54305,1.34722 2.60449,1.40741 3.2612,0.18495 5.96307,1.82286 8.67907,3.17673 2.2335,1.11336 2.71501,3.58925 3.12389,5.87045 1.95293,10.89622 -9.11407,20.01443 -20.47124,16.68314 z"
   id="path6979"
   style="stroke-width:0.380567" />
</svg>
