<?xml version="1.0" encoding="UTF-8" standalone="no"?>
<svg
   id="svg"
   version="1.1"
   width="400"
   height="407.32394366197184"
   viewBox="0, 0, 400,407.32394366197184"
   sodipodi:docname="user-dashboard.svg"
   inkscape:version="1.2.2 (b0a84865, 2022-12-01)"
   xmlns:inkscape="http://www.inkscape.org/namespaces/inkscape"
   xmlns:sodipodi="http://sodipodi.sourceforge.net/DTD/sodipodi-0.dtd"
   xmlns="http://www.w3.org/2000/svg"
   xmlns:svg="http://www.w3.org/2000/svg">
  <defs
     id="defs5354" />
  <sodipodi:namedview
     id="namedview5352"
     pagecolor="#ffffff"
     bordercolor="#000000"
     borderopacity="0.25"
     inkscape:showpageshadow="2"
     inkscape:pageopacity="0.0"
     inkscape:pagecheckerboard="0"
     inkscape:deskcolor="#d1d1d1"
     showgrid="false"
     inkscape:zoom="2.5213347"
     inkscape:cx="139.41029"
     inkscape:cy="205.84336"
     inkscape:window-width="1918"
     inkscape:window-height="1280"
     inkscape:window-x="92"
     inkscape:window-y="25"
     inkscape:window-maximized="0"
     inkscape:current-layer="svgg" />
  <g
     id="svgg">
    <path
       id="path0"
       d="M204.105 0.287 C 204.714 0.379,205.614 0.377,206.105 0.282 C 206.597 0.187,206.100 0.111,205.000 0.114 C 203.900 0.117,203.497 0.195,204.105 0.287 M188.600 27.833 C 187.940 27.920,185.510 28.182,183.200 28.417 C 152.764 31.513,120.450 44.458,96.431 63.174 C 76.697 78.552,65.249 91.251,50.432 114.200 C 46.352 120.520,37.900 139.056,35.385 147.200 C 34.808 149.070,34.175 150.960,33.978 151.400 C 33.782 151.840,33.357 153.280,33.034 154.600 C 32.712 155.920,32.158 158.080,31.805 159.400 C 31.029 162.299,29.804 168.447,28.985 173.551 C 28.655 175.615,28.303 177.434,28.203 177.595 C 26.197 180.841,26.322 219.141,28.365 227.145 C 28.569 227.945,28.852 229.590,28.993 230.800 C 29.135 232.010,29.515 234.260,29.839 235.800 C 31.240 242.457,32.134 246.314,32.649 247.914 C 32.952 248.857,33.200 249.902,33.200 250.236 C 33.200 250.856,36.858 262.021,37.775 264.200 C 38.053 264.860,38.700 266.480,39.213 267.800 C 42.464 276.170,50.446 291.582,54.259 296.854 C 54.997 297.873,55.600 298.826,55.600 298.970 C 55.600 299.115,55.782 299.451,56.004 299.717 C 56.226 299.983,58.021 302.360,59.993 305.000 C 64.650 311.233,64.430 310.949,67.096 314.200 C 71.425 319.480,80.034 328.321,86.184 333.800 C 87.912 335.340,90.511 337.658,91.960 338.951 C 94.760 341.451,97.622 343.703,101.200 346.221 C 105.021 348.911,112.959 354.179,114.000 354.716 C 114.550 355.000,116.080 355.851,117.400 356.608 C 119.923 358.054,128.932 362.555,132.000 363.903 C 137.767 366.437,141.023 367.691,145.800 369.220 C 147.340 369.713,148.870 370.242,149.200 370.396 C 149.530 370.550,150.790 370.897,152.000 371.167 C 153.210 371.437,154.560 371.814,155.000 372.005 C 155.785 372.347,156.347 372.486,163.200 374.035 C 170.296 375.640,176.385 376.657,182.200 377.211 C 195.874 378.513,209.404 378.656,216.600 377.575 C 218.140 377.344,221.470 376.908,224.000 376.607 C 230.097 375.881,238.073 374.312,244.000 372.673 C 245.210 372.338,247.280 371.777,248.600 371.425 C 249.920 371.073,251.276 370.632,251.613 370.444 C 251.950 370.256,252.850 369.968,253.613 369.805 C 254.376 369.641,255.180 369.373,255.400 369.209 C 255.620 369.045,256.340 368.784,257.000 368.630 C 258.070 368.380,264.113 366.139,266.200 365.218 C 273.514 361.990,279.823 358.809,284.800 355.839 C 285.790 355.248,286.915 354.662,287.300 354.536 C 287.685 354.410,288.000 354.148,288.000 353.953 C 288.000 353.759,288.195 353.600,288.433 353.600 C 289.193 353.600,299.695 346.402,302.100 344.232 C 302.485 343.884,302.909 343.600,303.042 343.600 C 304.002 343.600,319.016 329.816,326.313 322.234 C 330.860 317.511,336.999 309.895,342.946 301.600 C 344.967 298.780,349.200 292.033,349.200 291.630 C 349.200 291.430,349.341 291.207,349.513 291.133 C 351.150 290.436,360.489 270.755,364.097 260.400 C 365.208 257.210,366.461 253.250,366.882 251.600 C 367.303 249.950,367.924 247.610,368.261 246.400 C 368.599 245.190,369.187 242.760,369.568 241.000 C 369.949 239.240,370.369 237.530,370.502 237.200 C 370.831 236.377,371.533 231.910,372.197 226.400 C 372.502 223.870,372.943 220.582,373.176 219.093 C 373.725 215.590,373.728 190.943,373.181 186.445 C 372.950 184.550,372.503 180.840,372.188 178.200 C 371.416 171.741,369.508 161.361,368.806 159.800 C 368.608 159.360,368.335 158.370,368.198 157.600 C 368.062 156.830,367.798 155.750,367.612 155.200 C 367.426 154.650,366.794 152.580,366.207 150.600 C 365.621 148.620,364.992 146.640,364.811 146.200 C 364.631 145.760,364.083 144.230,363.595 142.800 C 348.896 99.737,313.186 62.174,266.600 40.771 C 264.798 39.944,257.093 37.221,252.600 35.824 C 245.427 33.594,244.532 33.343,240.400 32.395 C 231.830 30.428,230.033 30.093,219.800 28.559 C 215.648 27.936,192.018 27.387,188.600 27.833 M55.234 62.953 L 54.269 64.200 55.413 63.112 C 56.043 62.514,56.477 61.953,56.379 61.865 C 56.280 61.777,55.765 62.267,55.234 62.953 M212.621 69.820 C 221.611 71.483,232.273 75.653,238.630 79.992 C 239.604 80.656,241.255 81.781,242.300 82.492 C 248.195 86.500,256.957 96.911,260.954 104.655 C 266.601 115.598,268.356 122.958,268.763 137.400 C 268.997 145.688,269.014 145.819,270.055 147.200 C 272.726 150.743,274.758 157.820,274.278 161.904 C 273.935 164.823,272.940 168.869,272.238 170.200 C 271.890 170.860,271.604 171.625,271.602 171.900 C 271.601 172.175,271.461 172.400,271.291 172.400 C 271.121 172.400,270.637 173.040,270.216 173.822 C 268.189 177.587,262.984 181.293,257.776 182.681 C 255.034 183.412,255.402 182.838,253.970 188.600 C 253.751 189.480,253.308 190.767,252.986 191.460 C 252.664 192.154,252.400 192.873,252.400 193.060 C 252.400 193.579,249.041 200.182,248.700 200.333 C 248.535 200.407,248.400 200.623,248.400 200.813 C 248.400 202.120,242.819 209.173,237.600 214.461 C 227.692 224.499,220.525 228.939,208.200 232.673 C 205.319 233.546,193.737 233.743,192.761 232.936 C 192.453 232.680,191.480 232.343,190.600 232.185 C 189.720 232.028,188.280 231.594,187.400 231.220 C 186.520 230.847,184.990 230.198,184.000 229.778 C 181.723 228.812,176.643 225.940,176.467 225.519 C 176.393 225.343,176.156 225.200,175.939 225.200 C 173.035 225.200,158.992 211.654,153.341 203.400 C 151.716 201.028,147.600 192.896,147.600 192.060 C 147.600 191.822,147.340 191.036,147.021 190.314 C 146.703 189.591,146.063 187.709,145.598 186.131 C 144.718 183.145,143.894 182.400,141.472 182.400 C 139.706 182.400,135.510 179.873,132.741 177.142 C 124.848 169.358,123.792 154.818,130.537 146.802 C 131.427 145.745,131.484 145.301,131.738 137.546 C 132.986 99.416,157.129 72.938,194.200 69.044 C 197.566 68.690,209.153 69.178,212.621 69.820 M398.679 178.957 C 398.515 179.374,398.475 179.809,398.591 179.924 C 398.955 180.289,399.276 179.691,399.124 178.931 C 398.983 178.235,398.962 178.236,398.679 178.957 M0.896 183.781 C 0.928 185.373,1.010 185.596,1.313 184.917 C 1.556 184.373,1.542 183.666,1.273 182.936 C 0.891 181.895,0.859 181.966,0.896 183.781 M399.709 194.000 C 399.709 194.990,399.787 195.395,399.882 194.900 C 399.978 194.405,399.978 193.595,399.882 193.100 C 399.787 192.605,399.709 193.010,399.709 194.000 M399.701 209.800 C 399.705 210.680,399.787 210.993,399.883 210.495 C 399.979 209.998,399.975 209.278,399.875 208.895 C 399.775 208.513,399.696 208.920,399.701 209.800 M399.693 214.400 C 399.693 215.170,399.775 215.485,399.876 215.100 C 399.976 214.715,399.976 214.085,399.876 213.700 C 399.775 213.315,399.693 213.630,399.693 214.400 M0.493 216.400 C 0.493 217.170,0.575 217.485,0.676 217.100 C 0.776 216.715,0.776 216.085,0.676 215.700 C 0.575 215.315,0.493 215.630,0.493 216.400 M399.309 220.400 C 399.309 221.390,399.387 221.795,399.482 221.300 C 399.578 220.805,399.578 219.995,399.482 219.500 C 399.387 219.005,399.309 219.410,399.309 220.400 M0.880 222.200 C 0.880 222.970,1.042 223.600,1.240 223.600 C 1.438 223.600,1.600 222.970,1.600 222.200 C 1.600 221.430,1.438 220.800,1.240 220.800 C 1.042 220.800,0.880 221.430,0.880 222.200 M398.428 225.700 C 398.487 227.594,399.142 228.299,399.172 226.500 C 399.187 225.565,399.020 224.800,398.800 224.800 C 398.580 224.800,398.413 225.205,398.428 225.700 M398.093 230.000 C 398.093 230.770,398.175 231.085,398.276 230.700 C 398.376 230.315,398.376 229.685,398.276 229.300 C 398.175 228.915,398.093 229.230,398.093 230.000 M2.093 231.600 C 2.093 232.370,2.175 232.685,2.276 232.300 C 2.376 231.915,2.376 231.285,2.276 230.900 C 2.175 230.515,2.093 230.830,2.093 231.600 M2.400 234.576 C 2.400 235.113,2.580 235.664,2.800 235.800 C 3.033 235.944,3.200 235.537,3.200 234.824 C 3.200 234.151,3.020 233.600,2.800 233.600 C 2.580 233.600,2.400 234.039,2.400 234.576 M396.800 237.024 C 396.800 237.604,396.973 237.940,397.200 237.800 C 397.420 237.664,397.600 237.203,397.600 236.776 C 397.600 236.349,397.420 236.000,397.200 236.000 C 396.980 236.000,396.800 236.461,396.800 237.024 M160.324 239.588 C 160.392 240.791,160.592 241.961,160.769 242.188 C 160.945 242.415,161.204 243.078,161.343 243.661 C 162.178 247.165,166.867 252.884,171.646 256.227 C 174.560 258.265,180.502 261.200,181.715 261.200 C 182.066 261.200,182.451 261.360,182.572 261.555 C 182.693 261.750,183.468 262.032,184.296 262.182 C 185.123 262.333,186.520 262.691,187.400 262.980 C 195.029 265.478,212.664 264.678,218.495 261.570 C 218.877 261.367,219.437 261.200,219.739 261.200 C 220.042 261.200,221.619 260.515,223.245 259.678 C 230.827 255.774,235.072 251.896,237.782 246.400 C 238.378 245.190,239.058 243.844,239.293 243.410 C 239.528 242.975,239.807 241.400,239.914 239.910 C 240.078 237.606,240.219 237.200,240.850 237.200 C 241.760 237.200,247.653 239.173,248.180 239.653 C 248.389 239.844,248.839 240.001,249.180 240.002 C 249.521 240.004,250.340 240.289,251.000 240.635 C 251.660 240.982,253.190 241.685,254.400 242.198 C 255.610 242.711,257.996 243.776,259.702 244.565 C 261.408 245.354,262.968 246.000,263.168 246.000 C 263.369 246.000,263.593 246.135,263.667 246.300 C 263.740 246.465,264.520 246.951,265.400 247.380 C 268.142 248.715,272.594 251.318,272.733 251.667 C 272.807 251.850,273.046 252.000,273.265 252.000 C 273.697 252.000,280.742 256.661,281.400 257.382 C 281.620 257.623,283.150 258.926,284.800 260.279 C 299.354 272.207,309.644 287.222,307.894 293.976 C 307.570 295.226,299.454 303.838,295.800 306.809 C 283.034 317.191,269.172 325.691,257.400 330.358 C 256.080 330.881,254.460 331.528,253.800 331.795 C 250.756 333.027,248.100 333.986,247.027 334.243 C 246.381 334.397,245.391 334.765,244.827 335.059 C 244.262 335.354,243.431 335.596,242.980 335.598 C 242.529 335.599,241.989 335.765,241.780 335.966 C 241.571 336.167,240.050 336.602,238.400 336.932 C 235.435 337.526,233.124 338.076,230.400 338.836 C 228.547 339.353,222.539 340.326,216.600 341.072 C 210.578 341.828,191.761 342.223,189.000 341.650 C 187.900 341.422,185.290 341.060,183.200 340.844 C 178.570 340.367,171.220 339.255,170.400 338.907 C 170.070 338.768,168.810 338.430,167.600 338.156 C 161.773 336.839,160.045 336.407,159.160 336.045 C 158.632 335.829,156.580 335.165,154.600 334.568 C 152.620 333.972,150.829 333.330,150.620 333.142 C 150.411 332.954,149.988 332.800,149.680 332.800 C 149.373 332.800,148.554 332.541,147.860 332.225 C 147.167 331.909,145.430 331.177,144.000 330.600 C 142.570 330.023,140.833 329.291,140.140 328.975 C 139.446 328.659,138.681 328.400,138.440 328.400 C 138.198 328.400,138.000 328.220,138.000 328.000 C 138.000 327.780,137.809 327.600,137.575 327.600 C 137.138 327.600,132.758 325.573,132.400 325.205 C 132.290 325.092,131.300 324.578,130.200 324.062 C 129.100 323.546,127.121 322.466,125.801 321.662 C 124.482 320.858,123.085 320.020,122.697 319.800 C 121.241 318.975,114.887 314.529,111.845 312.208 C 96.792 300.719,91.486 294.810,92.352 290.500 C 93.017 287.186,98.070 277.554,99.959 276.000 C 100.092 275.890,101.498 274.258,103.082 272.373 C 109.090 265.225,126.431 250.800,129.015 250.800 C 129.159 250.800,129.773 250.446,130.380 250.014 C 132.718 248.349,137.650 245.788,144.800 242.526 C 146.450 241.773,148.160 240.991,148.600 240.789 C 149.681 240.292,152.685 239.240,154.400 238.757 C 155.170 238.540,156.160 238.204,156.600 238.010 C 159.592 236.694,160.174 236.941,160.324 239.588 M3.600 240.400 C 3.600 240.840,3.780 241.200,4.000 241.200 C 4.220 241.200,4.400 240.840,4.400 240.400 C 4.400 239.960,4.220 239.600,4.000 239.600 C 3.780 239.600,3.600 239.960,3.600 240.400 M396.400 240.933 C 396.400 241.740,396.220 242.400,396.000 242.400 C 395.780 242.400,395.600 242.940,395.600 243.600 C 395.600 244.260,395.762 244.800,395.961 244.800 C 396.375 244.800,397.008 240.075,396.642 239.709 C 396.509 239.576,396.400 240.127,396.400 240.933 M5.378 248.035 C 5.231 248.274,5.310 248.670,5.555 248.915 C 5.882 249.242,6.000 249.126,6.000 248.480 C 6.000 247.514,5.792 247.365,5.378 248.035 M6.093 250.800 C 6.093 251.570,6.175 251.885,6.276 251.500 C 6.376 251.115,6.376 250.485,6.276 250.100 C 6.175 249.715,6.093 250.030,6.093 250.800 M394.212 250.117 C 394.041 250.512,394.013 250.947,394.151 251.084 C 394.557 251.490,394.884 250.920,394.697 250.131 C 394.532 249.433,394.510 249.432,394.212 250.117 M393.660 253.067 C 393.627 253.763,393.399 254.400,393.154 254.482 C 392.909 254.564,392.791 254.984,392.891 255.415 C 393.165 256.589,394.088 254.166,393.879 252.823 C 393.741 251.939,393.712 251.971,393.660 253.067 M6.400 253.000 C 6.400 253.330,6.580 253.600,6.800 253.600 C 7.020 253.600,7.200 253.330,7.200 253.000 C 7.200 252.670,7.020 252.400,6.800 252.400 C 6.580 252.400,6.400 252.670,6.400 253.000 M8.000 258.576 C 8.000 258.893,8.180 259.264,8.400 259.400 C 8.620 259.536,8.800 259.277,8.800 258.824 C 8.800 258.371,8.620 258.000,8.400 258.000 C 8.180 258.000,8.000 258.259,8.000 258.576 M391.000 262.000 C 390.851 262.880,390.589 263.600,390.416 263.600 C 390.243 263.600,389.981 264.360,389.832 265.288 C 389.684 266.216,389.413 267.071,389.231 267.188 C 389.049 267.305,388.772 268.030,388.616 268.800 C 388.351 270.097,388.373 270.141,388.914 269.400 C 389.235 268.960,389.632 267.970,389.795 267.200 C 389.959 266.430,390.225 265.620,390.388 265.400 C 390.550 265.180,390.868 264.280,391.094 263.400 C 391.320 262.520,391.635 261.485,391.795 261.100 C 391.961 260.701,391.910 260.400,391.678 260.400 C 391.454 260.400,391.149 261.120,391.000 262.000 M9.200 262.576 C 9.200 262.893,9.380 263.264,9.600 263.400 C 9.820 263.536,10.000 263.277,10.000 262.824 C 10.000 262.371,9.820 262.000,9.600 262.000 C 9.380 262.000,9.200 262.259,9.200 262.576 M10.416 266.054 C 10.407 266.414,10.669 267.224,10.998 267.854 C 11.766 269.328,11.780 268.506,11.016 266.746 C 10.694 266.006,10.424 265.694,10.416 266.054 M11.852 270.200 C 11.927 270.640,11.992 271.135,11.995 271.300 C 12.005 271.886,12.800 271.590,12.800 271.000 C 12.800 270.670,12.633 270.400,12.429 270.400 C 12.225 270.400,11.981 270.175,11.887 269.900 C 11.792 269.625,11.777 269.760,11.852 270.200 M13.200 274.176 C 13.200 274.493,13.357 274.850,13.548 274.968 C 13.740 275.086,14.011 275.756,14.151 276.456 C 14.291 277.155,14.480 277.654,14.570 277.563 C 14.850 277.284,13.885 273.600,13.533 273.600 C 13.350 273.600,13.200 273.859,13.200 274.176 M386.846 274.267 C 386.821 274.743,386.642 275.193,386.449 275.267 C 386.255 275.340,385.979 276.030,385.835 276.800 C 385.573 278.198,385.573 278.198,386.410 276.473 C 386.871 275.523,387.168 274.443,387.070 274.073 C 386.940 273.581,386.880 273.633,386.846 274.267 M14.800 278.553 C 14.800 278.883,14.966 279.255,15.169 279.381 C 15.372 279.506,15.661 280.165,15.810 280.844 C 16.013 281.769,16.196 281.964,16.537 281.623 C 16.879 281.281,16.877 281.095,16.528 280.879 C 16.273 280.721,15.939 280.097,15.787 279.492 C 15.480 278.267,14.800 277.620,14.800 278.553 M383.200 282.767 C 383.200 282.969,383.086 283.464,382.946 283.867 C 382.723 284.511,382.770 284.503,383.333 283.800 C 384.076 282.873,384.167 282.400,383.600 282.400 C 383.380 282.400,383.200 282.565,383.200 282.767 M382.432 285.267 C 382.414 285.633,382.193 286.002,381.940 286.087 C 381.687 286.171,381.567 286.501,381.673 286.819 C 381.816 287.248,381.993 287.160,382.359 286.477 C 382.630 285.970,382.764 285.341,382.658 285.078 C 382.547 284.806,382.450 284.888,382.432 285.267 M19.021 287.567 C 18.843 287.854,18.874 288.204,19.089 288.345 C 19.304 288.485,19.673 289.140,19.908 289.800 C 20.144 290.460,20.337 290.730,20.338 290.400 C 20.340 289.151,19.353 287.028,19.021 287.567 M381.200 288.157 C 381.200 288.537,381.039 288.748,380.843 288.626 C 380.451 288.385,379.825 290.359,380.181 290.714 C 380.301 290.835,380.400 290.633,380.400 290.267 C 380.400 289.900,380.568 289.600,380.773 289.600 C 381.223 289.600,381.770 288.037,381.437 287.703 C 381.306 287.573,381.200 287.777,381.200 288.157 M379.306 291.690 C 379.082 291.971,378.762 292.642,378.596 293.181 C 378.430 293.721,378.048 294.409,377.747 294.710 C 377.446 295.011,377.214 295.559,377.232 295.929 C 377.257 296.479,377.304 296.492,377.492 296.000 C 377.617 295.670,377.838 295.310,377.982 295.200 C 378.404 294.877,380.053 291.519,379.876 291.342 C 379.787 291.253,379.530 291.410,379.306 291.690 M21.390 293.219 C 21.814 294.624,22.853 295.692,22.507 294.365 C 22.369 293.834,21.994 293.138,21.675 292.819 C 21.167 292.310,21.132 292.361,21.390 293.219 M376.506 297.290 C 376.282 297.571,375.972 298.250,375.818 298.800 C 375.589 299.619,375.692 299.557,376.391 298.455 C 377.226 297.137,377.310 296.285,376.506 297.290 M24.000 298.522 C 24.000 298.841,24.263 299.320,24.585 299.587 C 24.906 299.854,25.290 300.453,25.437 300.917 C 25.585 301.382,25.976 302.033,26.306 302.363 C 26.839 302.896,26.872 302.856,26.600 302.000 C 26.432 301.471,26.048 300.791,25.747 300.490 C 25.446 300.189,25.200 299.763,25.200 299.543 C 25.200 299.323,24.930 298.873,24.600 298.543 C 24.085 298.028,24.000 298.025,24.000 298.522 M374.564 301.000 C 374.426 301.550,374.153 302.000,373.957 302.000 C 373.760 302.000,373.600 302.180,373.600 302.400 C 373.600 303.257,374.263 302.734,374.868 301.400 C 375.217 300.630,375.348 300.000,375.159 300.000 C 374.970 300.000,374.702 300.450,374.564 301.000 M26.800 303.510 C 26.800 303.748,27.046 304.189,27.347 304.490 C 27.648 304.791,28.015 305.418,28.163 305.883 C 28.468 306.843,29.600 307.942,29.600 307.278 C 29.600 307.046,29.330 306.587,29.000 306.257 C 28.670 305.927,28.400 305.492,28.400 305.290 C 28.400 305.088,28.040 304.507,27.600 304.000 C 27.160 303.493,26.800 303.272,26.800 303.510 M370.455 308.014 C 370.204 308.733,370.188 309.131,370.416 308.990 C 370.627 308.860,370.800 308.508,370.800 308.210 C 370.800 307.911,371.016 307.595,371.280 307.507 C 371.621 307.393,371.632 307.267,371.319 307.074 C 371.057 306.912,370.706 307.294,370.455 308.014 M29.606 308.271 C 29.618 308.884,30.355 309.778,30.626 309.507 C 30.774 309.359,30.604 308.947,30.248 308.590 C 29.891 308.234,29.603 308.091,29.606 308.271 M30.832 310.251 C 30.814 310.499,31.070 310.926,31.400 311.200 C 31.730 311.474,32.000 311.860,32.000 312.058 C 32.000 312.641,34.073 315.600,34.482 315.600 C 34.688 315.600,34.574 315.317,34.229 314.971 C 33.883 314.626,33.600 314.086,33.600 313.771 C 33.600 313.457,33.432 313.200,33.226 313.200 C 33.020 313.200,32.627 312.580,32.353 311.821 C 32.079 311.063,31.723 310.524,31.562 310.624 C 31.400 310.723,31.177 310.579,31.066 310.302 C 30.940 309.989,30.851 309.970,30.832 310.251 M366.919 313.690 C 366.313 314.473,365.949 315.678,366.405 315.397 C 366.622 315.263,366.800 314.908,366.800 314.610 C 366.800 314.311,367.025 313.986,367.300 313.888 C 367.575 313.790,367.691 313.591,367.557 313.445 C 367.423 313.300,367.136 313.410,366.919 313.690 M37.227 319.456 C 37.212 319.706,37.554 320.336,37.987 320.856 C 38.419 321.375,38.779 321.575,38.787 321.300 C 38.794 321.025,38.648 320.800,38.461 320.800 C 38.275 320.800,37.927 320.395,37.688 319.900 C 37.449 319.405,37.242 319.205,37.227 319.456 M362.960 319.906 C 362.378 320.294,361.482 322.015,361.731 322.264 C 361.839 322.372,362.046 322.087,362.190 321.630 C 362.335 321.174,362.603 320.800,362.784 320.800 C 362.966 320.800,363.218 320.530,363.345 320.200 C 363.605 319.521,363.574 319.496,362.960 319.906 M39.840 323.588 C 40.426 324.475,41.018 325.200,41.156 325.200 C 41.293 325.200,41.644 325.740,41.936 326.400 C 42.447 327.554,43.200 328.031,43.200 327.200 C 43.200 326.980,43.016 326.800,42.790 326.800 C 42.565 326.800,42.209 326.350,42.000 325.800 C 41.791 325.250,41.439 324.800,41.218 324.800 C 40.996 324.800,40.712 324.387,40.585 323.882 C 40.458 323.377,39.999 322.742,39.564 322.470 C 38.903 322.057,38.948 322.240,39.840 323.588 M360.517 323.100 C 360.376 323.485,359.886 324.171,359.430 324.624 C 358.596 325.453,357.600 326.980,357.600 327.430 C 357.600 327.563,358.286 326.801,359.124 325.736 C 360.578 323.888,361.404 322.400,360.975 322.400 C 360.865 322.400,360.659 322.715,360.517 323.100 M43.451 328.589 C 43.567 328.891,43.909 329.233,44.211 329.349 C 44.557 329.482,44.682 329.357,44.549 329.011 C 44.433 328.709,44.091 328.367,43.789 328.251 C 43.443 328.118,43.318 328.243,43.451 328.589 M356.000 329.072 C 355.113 330.010,355.097 330.078,355.853 329.676 C 356.322 329.426,356.811 328.947,356.940 328.611 C 357.254 327.794,357.168 327.836,356.000 329.072 M45.846 331.311 C 45.983 331.702,46.478 332.219,46.947 332.460 C 47.677 332.835,47.716 332.819,47.218 332.349 C 46.898 332.047,46.403 331.530,46.117 331.200 C 45.665 330.678,45.630 330.692,45.846 331.311 M353.814 331.822 C 353.207 332.384,352.811 332.944,352.933 333.067 C 353.127 333.261,355.200 331.317,355.200 330.942 C 355.200 330.634,354.871 330.843,353.814 331.822 M48.282 334.500 C 51.406 337.922,52.036 338.522,51.608 337.671 C 51.351 337.160,50.412 336.035,49.522 335.171 C 47.781 333.481,46.933 333.022,48.282 334.500 M350.370 335.854 C 349.478 336.824,349.468 336.873,350.253 336.465 C 350.722 336.222,351.211 335.747,351.340 335.411 C 351.668 334.558,351.485 334.642,350.370 335.854 M346.600 340.213 C 343.794 343.215,343.807 343.200,344.067 343.200 C 344.396 343.200,348.045 339.503,348.693 338.514 C 349.628 337.087,349.189 337.444,346.600 340.213 M53.285 340.172 C 54.002 340.926,54.669 341.464,54.766 341.368 C 54.992 341.141,52.758 338.800,52.315 338.800 C 52.130 338.800,52.567 339.417,53.285 340.172 M55.600 342.626 C 55.600 343.011,62.437 349.941,63.300 350.431 C 63.772 350.699,64.000 350.693,64.000 350.414 C 64.000 350.186,63.804 350.000,63.564 350.000 C 63.325 350.000,61.435 348.278,59.364 346.174 C 57.294 344.070,55.600 342.473,55.600 342.626 M66.662 353.500 C 70.654 357.372,74.847 360.983,75.746 361.324 C 76.596 361.646,76.596 361.643,75.717 360.824 C 75.231 360.371,74.722 360.000,74.585 360.000 C 74.449 360.000,73.624 359.280,72.753 358.400 C 71.882 357.520,71.032 356.800,70.865 356.800 C 70.698 356.800,69.940 356.161,69.181 355.380 C 65.734 351.834,65.052 351.200,64.684 351.200 C 64.467 351.200,65.357 352.235,66.662 353.500 M332.000 354.861 C 330.077 356.967,330.011 357.101,331.451 355.977 C 332.648 355.042,333.797 353.630,333.528 353.425 C 333.457 353.371,332.770 354.018,332.000 354.861 M327.499 358.746 C 326.673 359.546,325.998 360.349,325.999 360.531 C 325.999 360.713,326.749 360.127,327.665 359.229 C 328.581 358.332,329.256 357.528,329.165 357.444 C 329.074 357.360,328.324 357.946,327.499 358.746 M322.996 362.663 C 322.558 363.174,322.007 363.594,321.772 363.596 C 321.537 363.598,320.953 364.050,320.475 364.600 C 319.357 365.885,319.741 365.878,321.342 364.583 C 324.377 362.130,324.789 361.733,324.305 361.733 C 324.022 361.733,323.433 362.151,322.996 362.663 M77.600 362.777 C 77.600 363.189,79.175 364.400,79.710 364.400 C 79.892 364.400,79.556 363.950,78.962 363.400 C 77.774 362.299,77.600 362.219,77.600 362.777 M81.200 365.718 C 81.750 366.305,82.326 366.789,82.479 366.793 C 82.633 366.797,83.263 367.268,83.879 367.839 C 85.593 369.428,86.581 369.886,86.016 368.830 C 85.772 368.374,85.383 368.000,85.153 368.000 C 84.923 368.000,83.984 367.398,83.067 366.662 C 80.788 364.833,79.998 364.434,81.200 365.718 M313.759 369.764 C 313.639 370.074,313.125 370.432,312.615 370.560 C 312.105 370.688,311.588 371.055,311.464 371.376 C 311.315 371.767,311.432 371.886,311.820 371.737 C 312.139 371.614,312.400 371.354,312.400 371.157 C 312.400 370.961,312.630 370.800,312.911 370.800 C 313.192 370.800,313.730 370.440,314.107 370.000 C 314.484 369.560,314.608 369.200,314.384 369.200 C 314.159 369.200,313.878 369.454,313.759 369.764 M87.200 369.917 C 87.200 370.321,90.027 372.400,90.577 372.400 C 90.761 372.400,91.167 372.715,91.478 373.100 C 91.989 373.732,92.002 373.712,91.608 372.900 C 91.368 372.405,90.927 372.000,90.629 372.000 C 90.330 372.000,89.982 371.730,89.855 371.400 C 89.729 371.070,89.362 370.800,89.041 370.800 C 88.720 370.800,88.174 370.517,87.829 370.171 C 87.483 369.826,87.200 369.711,87.200 369.917 M307.587 374.011 C 307.073 374.457,306.249 374.923,305.755 375.047 C 305.262 375.171,304.761 375.526,304.641 375.836 C 304.334 376.637,304.923 376.534,306.000 375.600 C 306.507 375.160,307.047 374.800,307.200 374.800 C 307.353 374.800,307.893 374.440,308.400 374.000 C 308.907 373.560,309.142 373.200,308.922 373.200 C 308.702 373.200,308.102 373.565,307.587 374.011 M94.400 374.979 C 94.400 375.273,98.649 378.000,99.108 378.000 C 99.342 378.000,99.616 378.225,99.717 378.500 C 99.846 378.852,100.034 378.875,100.350 378.580 C 100.673 378.278,100.386 378.011,99.327 377.628 C 98.517 377.335,97.662 376.936,97.427 376.740 C 95.476 375.118,95.035 374.800,94.739 374.800 C 94.552 374.800,94.400 374.880,94.400 374.979 M303.200 376.751 C 303.200 376.945,302.615 377.342,301.900 377.635 C 301.185 377.927,300.381 378.354,300.114 378.583 C 298.909 379.617,298.521 379.862,297.300 380.363 C 296.585 380.657,296.000 381.041,296.000 381.217 C 296.000 381.393,295.460 381.655,294.800 381.800 C 294.140 381.945,293.600 382.215,293.600 382.401 C 293.600 382.586,292.970 382.946,292.200 383.200 C 291.430 383.454,290.800 383.814,290.800 383.999 C 290.800 384.185,290.260 384.455,289.600 384.600 C 288.940 384.745,288.400 385.026,288.400 385.224 C 288.400 385.422,287.950 385.698,287.400 385.836 C 286.850 385.974,286.400 386.266,286.400 386.486 C 286.400 386.706,286.130 386.782,285.800 386.655 C 285.470 386.529,285.200 386.580,285.200 386.769 C 285.200 386.958,284.728 387.232,284.152 387.376 C 283.575 387.521,282.818 387.924,282.470 388.273 C 281.893 388.850,281.924 388.879,282.819 388.599 C 283.358 388.430,283.890 388.161,284.000 388.000 C 284.110 387.839,284.632 387.573,285.161 387.408 C 285.689 387.243,286.967 386.609,288.000 386.000 C 289.033 385.391,290.266 384.770,290.739 384.619 C 291.213 384.469,291.600 384.178,291.600 383.973 C 291.600 383.768,291.735 383.631,291.900 383.670 C 292.214 383.743,294.454 382.768,294.800 382.408 C 295.139 382.055,297.342 380.842,298.500 380.370 C 299.105 380.123,299.600 379.798,299.600 379.647 C 299.600 379.496,300.589 378.838,301.799 378.186 C 303.852 377.078,304.536 376.400,303.600 376.400 C 303.380 376.400,303.200 376.558,303.200 376.751 M101.600 379.561 C 101.600 379.759,102.095 380.123,102.700 380.370 C 104.089 380.936,106.008 382.049,106.714 382.700 C 107.013 382.975,107.527 383.200,107.857 383.200 C 108.739 383.200,107.824 382.430,105.493 381.208 C 104.452 380.663,103.600 380.084,103.600 379.921 C 103.600 379.758,103.330 379.729,103.000 379.855 C 102.670 379.982,102.400 379.886,102.400 379.643 C 102.400 379.399,102.220 379.200,102.000 379.200 C 101.780 379.200,101.600 379.362,101.600 379.561 M108.800 383.551 C 108.800 384.014,111.152 384.981,111.479 384.654 C 111.619 384.514,111.455 384.400,111.116 384.400 C 110.776 384.400,110.274 384.130,110.000 383.800 C 109.451 383.138,108.800 383.003,108.800 383.551 M112.000 385.136 C 112.000 385.420,112.561 385.776,114.500 386.720 C 114.665 386.801,114.800 386.672,114.800 386.433 C 114.800 386.195,114.552 386.000,114.249 386.000 C 113.946 386.000,113.474 385.730,113.200 385.400 C 112.657 384.746,112.000 384.601,112.000 385.136 M117.600 387.957 C 117.600 388.154,117.885 388.424,118.233 388.557 C 119.136 388.904,119.202 388.871,118.945 388.200 C 118.699 387.559,117.600 387.360,117.600 387.957 M280.100 389.065 C 279.825 389.176,279.600 389.432,279.600 389.633 C 279.600 390.213,280.652 390.060,281.200 389.400 C 281.725 388.768,281.219 388.613,280.100 389.065 M121.189 389.615 C 120.711 389.918,120.704 389.989,121.156 389.994 C 121.665 389.999,123.879 390.932,126.400 392.203 C 126.950 392.481,127.985 392.833,128.700 392.986 C 129.415 393.138,130.000 393.429,130.000 393.632 C 130.000 393.834,130.360 394.000,130.800 394.000 C 132.317 394.000,131.595 393.279,129.600 392.800 C 128.500 392.536,127.600 392.178,127.600 392.005 C 127.600 391.831,126.970 391.571,126.200 391.426 C 125.430 391.282,124.800 391.006,124.800 390.814 C 124.800 390.621,124.215 390.337,123.500 390.182 C 122.785 390.026,122.105 389.752,121.989 389.571 C 121.874 389.390,121.514 389.410,121.189 389.615 M277.500 390.276 C 277.115 390.376,276.800 390.605,276.800 390.785 C 276.800 390.964,276.170 391.229,275.400 391.374 C 274.630 391.518,274.000 391.827,274.000 392.061 C 274.000 392.294,273.730 392.382,273.400 392.255 C 273.070 392.129,272.800 392.199,272.800 392.413 C 272.800 392.991,273.615 392.862,275.400 392.000 C 276.280 391.575,277.225 391.221,277.500 391.214 C 277.775 391.206,278.000 391.033,278.000 390.829 C 278.000 390.625,278.315 390.376,278.700 390.276 C 279.152 390.158,279.188 390.093,278.800 390.093 C 278.470 390.093,277.885 390.175,277.500 390.276 M269.600 393.555 C 269.600 393.751,268.970 394.029,268.200 394.174 C 267.430 394.318,266.800 394.608,266.800 394.818 C 266.800 395.307,267.880 395.317,268.181 394.831 C 268.306 394.628,268.947 394.343,269.605 394.199 C 270.835 393.929,271.269 393.200,270.200 393.200 C 269.870 393.200,269.600 393.360,269.600 393.555 M133.400 394.800 C 133.264 395.020,133.423 395.200,133.753 395.200 C 134.083 395.200,134.464 395.020,134.600 394.800 C 134.736 394.580,134.577 394.400,134.247 394.400 C 133.917 394.400,133.536 394.580,133.400 394.800 M137.800 396.363 C 139.560 396.975,141.528 397.691,142.174 397.956 C 142.819 398.220,143.719 398.363,144.174 398.273 C 144.779 398.153,144.700 398.094,143.876 398.054 C 143.258 398.025,142.852 397.840,142.972 397.645 C 143.093 397.449,142.384 397.168,141.396 397.020 C 140.408 396.872,139.600 396.613,139.600 396.444 C 139.600 396.144,135.999 395.175,135.069 395.225 C 134.811 395.239,136.040 395.751,137.800 396.363 M263.300 395.705 C 262.365 395.930,261.600 396.257,261.600 396.432 C 261.600 396.608,260.790 396.872,259.800 397.021 C 258.810 397.169,258.000 397.430,258.000 397.600 C 258.000 397.770,256.830 398.130,255.400 398.400 C 253.970 398.670,252.800 399.050,252.800 399.245 C 252.800 399.786,254.468 399.664,255.673 399.035 C 256.263 398.727,257.343 398.348,258.073 398.192 C 258.803 398.035,259.580 397.775,259.800 397.612 C 260.020 397.450,260.920 397.124,261.800 396.887 C 266.125 395.725,267.402 394.718,263.300 395.705 M145.520 398.880 C 145.893 399.253,146.107 399.253,146.480 398.880 C 146.853 398.507,146.747 398.400,146.000 398.400 C 145.253 398.400,145.147 398.507,145.520 398.880 M147.000 399.200 C 146.864 399.420,147.123 399.600,147.576 399.600 C 148.029 399.600,148.400 399.420,148.400 399.200 C 148.400 398.980,148.141 398.800,147.824 398.800 C 147.507 398.800,147.136 398.980,147.000 399.200 M149.400 399.885 C 149.840 399.991,150.371 400.240,150.580 400.439 C 151.066 400.901,152.800 400.911,152.800 400.452 C 152.800 400.261,152.125 399.993,151.300 399.857 C 149.587 399.574,148.192 399.595,149.400 399.885 M249.500 399.887 C 248.895 399.978,248.400 400.221,248.400 400.427 C 248.400 400.907,249.724 400.912,250.220 400.434 C 250.429 400.232,251.050 399.987,251.600 399.888 L 252.600 399.709 251.600 399.714 C 251.050 399.717,250.105 399.795,249.500 399.887 M153.800 401.060 C 154.240 401.174,155.320 401.504,156.200 401.793 C 157.080 402.082,159.015 402.448,160.500 402.606 C 161.985 402.764,163.200 403.052,163.200 403.247 C 163.200 403.441,163.830 403.600,164.600 403.600 C 165.581 403.600,166.000 403.780,166.000 404.203 C 166.000 404.702,166.135 404.722,166.784 404.317 C 167.407 403.928,168.042 403.942,169.884 404.382 C 173.056 405.141,178.582 405.418,178.200 404.800 C 178.007 404.488,177.272 404.425,175.945 404.608 C 174.831 404.761,173.764 404.710,173.488 404.491 C 172.937 404.055,169.661 403.546,167.700 403.594 C 166.985 403.611,166.400 403.463,166.400 403.264 C 166.400 403.066,165.095 402.775,163.500 402.618 C 161.905 402.460,160.377 402.147,160.105 401.921 C 159.833 401.695,159.307 401.627,158.937 401.769 C 158.567 401.911,158.160 401.865,158.032 401.668 C 157.904 401.470,156.720 401.206,155.400 401.080 C 154.080 400.955,153.360 400.945,153.800 401.060 M244.400 401.184 C 243.261 401.411,243.136 401.523,243.727 401.785 C 244.140 401.968,244.830 401.918,245.327 401.670 C 245.807 401.430,246.650 401.160,247.200 401.071 C 248.039 400.935,248.007 400.909,247.000 400.907 C 246.340 400.906,245.170 401.031,244.400 401.184 M240.800 402.000 C 240.800 402.220,241.295 402.397,241.900 402.394 C 242.757 402.389,242.868 402.302,242.400 402.000 C 241.617 401.494,240.800 401.494,240.800 402.000 M238.100 402.676 C 238.485 402.776,239.115 402.776,239.500 402.676 C 239.885 402.575,239.570 402.493,238.800 402.493 C 238.030 402.493,237.715 402.575,238.100 402.676 M235.200 403.200 C 235.200 403.420,235.650 403.600,236.200 403.600 C 236.750 403.600,237.200 403.420,237.200 403.200 C 237.200 402.980,236.750 402.800,236.200 402.800 C 235.650 402.800,235.200 402.980,235.200 403.200 M232.300 403.882 C 232.795 403.978,233.605 403.978,234.100 403.882 C 234.595 403.787,234.190 403.709,233.200 403.709 C 232.210 403.709,231.805 403.787,232.300 403.882 M228.000 404.400 C 228.000 404.910,230.010 404.910,230.800 404.400 C 231.239 404.116,230.945 404.011,229.700 404.006 C 228.765 404.003,228.000 404.180,228.000 404.400 M223.200 404.800 C 223.200 405.020,224.055 405.182,225.100 405.160 C 226.649 405.128,226.815 405.061,226.000 404.800 C 224.555 404.337,223.200 404.337,223.200 404.800 M181.391 405.493 C 182.486 405.578,183.492 405.825,183.625 406.041 C 183.969 406.596,201.518 406.976,210.097 406.614 C 214.078 406.446,217.097 406.157,216.974 405.957 C 216.666 405.459,210.400 405.500,210.400 406.000 C 210.400 406.498,190.527 406.555,190.333 406.058 C 190.260 405.869,187.770 405.630,184.800 405.527 C 181.830 405.423,180.296 405.408,181.391 405.493 M218.300 405.489 C 219.015 405.578,220.185 405.578,220.900 405.489 C 221.615 405.401,221.030 405.328,219.600 405.328 C 218.170 405.328,217.585 405.401,218.300 405.489 "
       stroke="none"
       fill="#040404"
       fill-rule="evenodd"
       style="fill:#34316a;fill-opacity:1" />
    <path
       id="path1"
       d="M193.143 0.174 C 193.065 0.244,190.210 0.425,186.800 0.575 C 183.390 0.726,179.880 1.002,179.000 1.189 C 178.120 1.376,175.420 1.739,173.000 1.996 C 170.580 2.252,168.060 2.619,167.400 2.810 C 166.740 3.001,165.030 3.329,163.600 3.539 C 162.170 3.749,159.740 4.208,158.200 4.560 C 156.660 4.912,154.995 5.200,154.500 5.200 C 154.005 5.200,153.600 5.357,153.600 5.548 C 153.600 5.740,152.700 6.016,151.600 6.162 C 150.500 6.308,149.600 6.566,149.600 6.736 C 149.600 6.905,148.254 7.270,146.608 7.547 C 144.963 7.823,143.525 8.198,143.413 8.379 C 143.301 8.561,142.532 8.836,141.704 8.990 C 140.877 9.145,140.020 9.413,139.800 9.586 C 139.580 9.759,138.500 10.176,137.400 10.512 C 135.037 11.233,133.076 11.930,131.340 12.666 C 130.646 12.960,129.902 13.200,129.685 13.200 C 129.469 13.200,128.776 13.469,128.146 13.798 C 127.516 14.126,126.730 14.397,126.400 14.400 C 126.070 14.403,125.260 14.763,124.600 15.200 C 123.940 15.637,123.085 15.996,122.700 15.997 C 122.315 15.999,122.000 16.166,122.000 16.368 C 122.000 16.571,121.478 16.851,120.839 16.991 C 120.201 17.132,118.992 17.596,118.154 18.023 C 117.316 18.450,116.399 18.800,116.115 18.800 C 115.832 18.800,115.600 18.966,115.600 19.168 C 115.600 19.371,115.072 19.652,114.428 19.794 C 113.783 19.936,113.050 20.298,112.800 20.600 C 112.550 20.902,111.817 21.264,111.172 21.406 C 110.528 21.548,110.000 21.826,110.000 22.024 C 110.000 22.222,109.505 22.504,108.900 22.651 C 107.681 22.946,100.278 27.154,100.067 27.672 C 99.993 27.853,99.673 28.000,99.354 28.000 C 99.036 28.000,98.678 28.252,98.560 28.561 C 98.368 29.060,97.655 29.421,96.103 29.805 C 95.829 29.873,94.929 30.457,94.103 31.102 C 93.276 31.748,91.766 32.759,90.747 33.348 C 89.728 33.938,88.414 34.866,87.827 35.410 C 87.239 35.955,86.616 36.400,86.441 36.400 C 86.266 36.400,85.741 36.715,85.276 37.100 C 84.810 37.485,83.513 38.430,82.393 39.200 C 81.274 39.970,79.755 41.185,79.019 41.900 C 78.282 42.615,77.509 43.200,77.299 43.200 C 76.946 43.200,76.167 43.853,72.957 46.843 C 72.274 47.479,71.554 48.003,71.357 48.007 C 71.161 48.010,70.221 48.820,69.268 49.807 C 68.315 50.793,67.415 51.601,67.268 51.603 C 67.121 51.604,65.854 52.774,64.453 54.203 C 63.052 55.631,61.784 56.800,61.635 56.800 C 61.486 56.800,59.213 59.077,56.582 61.861 C 53.952 64.644,50.855 67.912,49.700 69.123 C 48.545 70.334,47.600 71.446,47.600 71.596 C 47.600 71.745,46.880 72.647,46.000 73.600 C 45.120 74.553,44.400 75.584,44.400 75.890 C 44.400 76.197,44.265 76.364,44.100 76.263 C 43.935 76.161,43.350 76.697,42.800 77.453 C 42.250 78.209,41.307 79.406,40.704 80.114 C 40.101 80.821,39.502 81.721,39.373 82.113 C 39.244 82.505,38.700 83.298,38.165 83.875 C 37.631 84.452,36.659 85.751,36.007 86.762 C 35.355 87.773,34.662 88.790,34.468 89.021 C 34.274 89.253,33.596 90.243,32.962 91.221 C 32.327 92.200,31.716 93.090,31.604 93.200 C 31.492 93.310,30.860 94.480,30.200 95.800 C 29.540 97.120,28.775 98.344,28.500 98.520 C 28.225 98.696,28.000 99.101,28.000 99.420 C 28.000 99.739,27.834 100.000,27.632 100.000 C 27.429 100.000,27.142 100.552,26.994 101.227 C 26.846 101.902,26.488 102.545,26.198 102.656 C 25.909 102.767,25.552 103.338,25.404 103.925 C 25.257 104.512,25.011 105.084,24.857 105.196 C 24.495 105.460,20.188 114.297,19.795 115.581 C 19.630 116.121,19.248 116.809,18.947 117.110 C 18.646 117.411,18.400 118.004,18.400 118.429 C 18.400 118.853,18.256 119.200,18.080 119.200 C 17.712 119.200,16.800 121.547,16.800 122.495 C 16.800 122.846,16.665 123.193,16.500 123.267 C 16.020 123.480,14.466 126.884,14.226 128.247 C 14.106 128.933,13.737 130.013,13.406 130.647 C 13.075 131.281,12.804 132.115,12.802 132.500 C 12.801 132.885,12.642 133.200,12.449 133.200 C 12.255 133.200,11.908 133.875,11.677 134.700 C 11.447 135.525,10.992 136.920,10.668 137.800 C 10.344 138.680,10.016 139.850,9.939 140.400 C 9.863 140.950,9.685 141.490,9.545 141.600 C 9.272 141.815,8.205 145.489,7.584 148.357 C 7.374 149.324,7.041 150.314,6.843 150.557 C 6.645 150.801,6.365 151.887,6.221 152.972 C 6.076 154.057,5.875 155.078,5.774 155.241 C 5.529 155.638,4.839 159.315,4.543 161.800 C 4.413 162.900,4.164 164.070,3.992 164.400 C 3.820 164.730,3.560 165.990,3.414 167.200 C 3.268 168.410,2.979 169.940,2.772 170.600 C 2.197 172.433,1.214 182.447,1.481 183.759 C 1.617 184.432,1.560 184.822,1.344 184.689 C 1.139 184.562,0.939 184.761,0.900 185.129 C 0.634 187.609,0.483 194.405,0.503 203.000 C 0.543 219.815,0.564 220.407,1.124 220.753 C 1.413 220.932,1.626 221.760,1.609 222.636 C 1.545 225.900,2.388 233.600,2.810 233.600 C 2.973 233.600,3.233 234.950,3.387 236.600 C 3.542 238.250,3.836 239.600,4.040 239.600 C 4.245 239.600,4.406 240.095,4.398 240.700 C 4.369 242.759,5.395 248.075,5.755 247.735 C 5.958 247.543,6.025 247.868,5.910 248.500 C 5.801 249.105,5.866 249.600,6.055 249.600 C 6.245 249.600,6.400 250.230,6.400 251.000 C 6.400 251.770,6.601 252.400,6.847 252.400 C 7.096 252.400,7.201 252.753,7.084 253.200 C 6.969 253.639,7.038 254.100,7.238 254.223 C 7.437 254.346,7.600 254.887,7.600 255.424 C 7.600 255.961,7.763 256.400,7.963 256.400 C 8.162 256.400,8.231 256.760,8.116 257.200 C 8.001 257.640,8.084 258.000,8.302 258.000 C 8.519 258.000,8.816 258.900,8.962 260.000 C 9.108 261.100,9.401 262.000,9.614 262.000 C 9.826 262.000,10.000 262.349,10.000 262.775 C 10.000 263.845,12.046 270.145,12.489 270.439 C 12.686 270.570,12.882 271.334,12.924 272.137 C 12.966 272.940,13.205 273.597,13.455 273.598 C 13.706 273.599,14.037 274.275,14.192 275.100 C 14.346 275.925,14.816 277.355,15.236 278.278 C 15.656 279.201,16.000 280.146,16.000 280.378 C 16.000 280.610,16.199 280.800,16.443 280.800 C 16.686 280.800,16.789 281.052,16.670 281.361 C 16.552 281.669,16.578 282.044,16.728 282.194 C 16.877 282.344,17.024 282.587,17.054 282.733 C 17.258 283.743,17.743 284.800,18.002 284.800 C 18.172 284.800,18.430 285.435,18.576 286.211 C 18.721 286.987,18.995 287.527,19.183 287.410 C 19.372 287.294,19.754 288.090,20.033 289.179 C 20.313 290.269,20.707 291.058,20.909 290.933 C 21.111 290.808,21.207 291.042,21.121 291.453 C 21.035 291.864,21.287 292.491,21.682 292.847 C 22.077 293.203,22.439 293.964,22.487 294.537 C 22.534 295.111,22.815 295.674,23.112 295.788 C 23.408 295.901,23.539 296.176,23.402 296.397 C 23.265 296.619,23.363 296.800,23.619 296.800 C 23.876 296.800,23.993 297.042,23.879 297.338 C 23.766 297.634,24.016 298.124,24.436 298.426 C 24.856 298.729,25.200 299.194,25.200 299.460 C 25.200 299.725,25.443 300.186,25.740 300.482 C 26.036 300.779,26.500 301.692,26.771 302.511 C 27.041 303.330,27.416 304.000,27.604 304.000 C 27.792 304.000,28.072 304.397,28.226 304.881 C 28.380 305.366,28.760 306.017,29.071 306.328 C 29.381 306.639,29.566 307.097,29.480 307.346 C 29.395 307.596,29.631 308.070,30.005 308.400 C 30.379 308.730,30.814 309.408,30.972 309.906 C 31.129 310.404,31.392 310.729,31.556 310.627 C 31.720 310.526,32.079 311.063,32.353 311.821 C 32.627 312.580,33.020 313.200,33.226 313.200 C 33.432 313.200,33.600 313.442,33.600 313.739 C 33.600 314.214,33.985 314.782,35.608 316.700 C 35.841 316.975,35.922 317.200,35.787 317.200 C 35.653 317.200,35.826 317.483,36.171 317.829 C 36.517 318.174,36.800 318.725,36.800 319.052 C 36.800 319.379,36.967 319.544,37.171 319.418 C 37.375 319.292,37.657 319.551,37.798 319.994 C 37.939 320.437,38.222 320.800,38.427 320.800 C 38.632 320.800,38.800 321.060,38.800 321.377 C 38.800 321.695,39.134 322.190,39.543 322.477 C 39.951 322.765,40.413 323.405,40.570 323.900 C 40.726 324.395,41.026 324.800,41.237 324.800 C 41.447 324.800,41.791 325.250,42.000 325.800 C 42.209 326.350,42.565 326.800,42.790 326.800 C 43.016 326.800,43.200 327.061,43.200 327.380 C 43.200 327.699,43.481 328.118,43.825 328.310 C 44.169 328.502,44.494 328.960,44.548 329.326 C 44.602 329.692,45.355 330.645,46.223 331.444 C 47.090 332.242,47.530 332.759,47.200 332.591 C 46.870 332.423,47.725 333.398,49.100 334.757 C 50.475 336.117,51.600 337.395,51.600 337.598 C 51.600 337.801,52.320 338.634,53.200 339.448 C 54.080 340.262,54.800 341.085,54.800 341.276 C 54.800 341.772,63.083 350.000,63.584 350.000 C 63.813 350.000,64.000 350.249,64.000 350.553 C 64.000 350.858,64.378 351.206,64.840 351.326 C 65.302 351.447,65.563 351.736,65.419 351.968 C 65.255 352.234,65.414 352.293,65.849 352.126 C 66.384 351.921,66.479 352.016,66.274 352.551 C 66.120 352.952,66.171 353.142,66.394 353.004 C 66.606 352.873,67.098 353.155,67.489 353.630 C 68.553 354.922,70.561 356.796,70.885 356.798 C 71.041 356.799,71.882 357.520,72.753 358.400 C 73.624 359.280,74.449 360.000,74.585 360.000 C 74.722 360.000,75.231 360.386,75.717 360.859 C 76.203 361.331,76.330 361.586,76.000 361.424 C 75.670 361.263,75.845 361.492,76.389 361.934 C 76.933 362.376,77.503 362.660,77.657 362.565 C 78.070 362.310,79.244 363.605,78.983 364.028 C 78.859 364.227,79.067 364.272,79.445 364.127 C 79.911 363.949,80.038 364.015,79.842 364.332 C 79.675 364.602,79.784 364.800,80.099 364.800 C 80.915 364.800,83.234 366.628,82.895 367.003 C 82.733 367.182,82.805 367.211,83.055 367.069 C 83.305 366.926,83.732 367.077,84.004 367.404 C 84.276 367.732,84.725 368.000,85.003 368.000 C 85.281 368.000,85.807 368.456,86.172 369.013 C 86.537 369.570,87.007 369.919,87.218 369.789 C 87.428 369.659,87.600 369.726,87.600 369.937 C 87.600 370.149,88.140 370.510,88.800 370.740 C 89.460 370.970,90.000 371.348,90.000 371.579 C 90.000 371.811,90.236 372.000,90.525 372.000 C 90.813 372.000,91.437 372.524,91.911 373.165 C 92.385 373.806,93.304 374.447,93.953 374.590 C 94.603 374.732,95.554 375.195,96.067 375.617 C 96.580 376.040,97.192 376.545,97.427 376.740 C 97.662 376.936,98.500 377.329,99.289 377.614 C 100.078 377.900,100.647 378.335,100.552 378.581 C 100.458 378.827,100.774 379.058,101.254 379.094 C 101.735 379.130,102.259 379.372,102.419 379.631 C 102.579 379.890,102.911 379.979,103.155 379.828 C 103.400 379.676,103.600 379.702,103.600 379.885 C 103.600 380.068,104.225 380.555,104.989 380.966 C 105.752 381.377,106.283 381.866,106.168 382.052 C 106.053 382.238,106.243 382.282,106.591 382.148 C 106.961 382.006,107.510 382.231,107.912 382.690 C 108.290 383.122,108.798 383.407,109.040 383.324 C 109.282 383.241,109.709 383.449,109.989 383.787 C 110.269 384.124,110.746 384.400,111.049 384.400 C 111.352 384.400,111.600 384.591,111.600 384.824 C 111.600 385.057,111.788 385.131,112.018 384.989 C 112.511 384.684,113.679 385.548,113.395 386.008 C 113.287 386.183,113.559 386.231,113.999 386.116 C 114.440 386.001,114.800 386.102,114.800 386.341 C 114.800 386.580,115.070 386.671,115.400 386.545 C 115.730 386.418,116.000 386.514,116.000 386.757 C 116.000 387.001,116.270 387.200,116.600 387.200 C 116.930 387.200,117.200 387.374,117.200 387.587 C 117.200 387.801,117.481 387.867,117.826 387.735 C 118.205 387.589,118.681 387.823,119.036 388.331 C 119.407 388.859,119.863 389.074,120.277 388.915 C 120.750 388.733,120.841 388.811,120.603 389.195 C 120.357 389.593,120.490 389.670,121.137 389.500 C 121.612 389.376,122.000 389.418,122.000 389.593 C 122.000 389.768,122.630 390.029,123.400 390.174 C 124.170 390.318,124.800 390.600,124.800 390.800 C 124.800 391.000,125.430 391.282,126.200 391.426 C 126.970 391.571,127.600 391.831,127.600 392.005 C 127.600 392.178,128.500 392.536,129.600 392.800 C 130.700 393.064,131.600 393.442,131.600 393.640 C 131.600 393.838,131.960 394.000,132.400 394.000 C 132.840 394.000,133.200 394.163,133.200 394.363 C 133.200 394.562,133.588 394.624,134.063 394.500 C 134.654 394.345,134.835 394.420,134.639 394.737 C 134.450 395.043,134.709 395.200,135.400 395.200 C 136.090 395.200,136.350 395.358,136.162 395.662 C 135.986 395.945,136.052 396.015,136.331 395.842 C 137.049 395.399,139.676 396.024,139.461 396.587 C 139.332 396.920,139.597 397.013,140.296 396.880 C 140.896 396.765,141.220 396.844,141.081 397.070 C 140.939 397.299,141.344 397.382,142.078 397.274 C 142.932 397.149,143.227 397.233,143.033 397.546 C 142.852 397.839,143.115 398.000,143.776 398.000 C 144.339 398.000,144.800 398.155,144.800 398.345 C 144.800 398.534,145.277 398.598,145.859 398.487 C 146.610 398.343,146.833 398.422,146.626 398.758 C 146.416 399.098,146.624 399.159,147.366 398.973 C 148.012 398.811,148.400 398.880,148.400 399.157 C 148.400 399.400,148.220 399.600,148.000 399.600 C 147.780 399.600,147.600 399.780,147.600 400.000 C 147.600 400.543,148.697 400.510,148.879 399.962 C 148.976 399.673,149.668 399.621,150.925 399.810 C 152.545 400.053,152.789 400.205,152.585 400.847 C 152.453 401.263,152.537 401.600,152.773 401.600 C 153.008 401.600,153.200 401.420,153.200 401.200 C 153.200 400.980,153.695 400.806,154.300 400.813 C 155.354 400.825,155.367 400.850,154.624 401.413 C 154.196 401.736,154.051 402.000,154.300 402.000 C 154.549 402.000,154.864 401.820,155.000 401.600 C 155.332 401.063,158.000 401.087,158.000 401.627 C 158.000 401.871,158.341 401.946,158.796 401.801 C 159.790 401.486,160.717 401.957,159.989 402.407 C 159.716 402.576,160.353 402.617,161.406 402.498 C 162.492 402.376,163.224 402.438,163.098 402.641 C 162.975 402.840,163.664 402.937,164.638 402.860 C 165.766 402.770,166.400 402.882,166.400 403.172 C 166.400 403.423,166.980 403.611,167.700 403.594 C 169.673 403.546,172.938 404.056,173.496 404.498 C 173.780 404.723,174.776 404.774,175.821 404.618 C 176.883 404.459,177.852 404.511,178.131 404.743 C 178.396 404.963,181.265 405.272,184.506 405.429 C 187.748 405.587,190.400 405.870,190.400 406.058 C 190.400 406.246,194.900 406.400,200.400 406.400 C 207.510 406.400,210.400 406.271,210.400 405.952 C 210.400 405.642,211.562 405.555,214.191 405.670 C 216.299 405.763,217.764 405.687,217.491 405.501 C 217.212 405.310,218.283 405.215,219.968 405.279 C 222.106 405.361,222.983 405.250,223.106 404.881 C 223.233 404.500,223.883 404.438,225.639 404.636 C 227.385 404.834,228.000 404.775,228.000 404.411 C 228.000 404.074,228.565 403.964,229.800 404.063 C 230.790 404.141,231.600 404.051,231.600 403.863 C 231.600 403.674,232.410 403.584,233.400 403.663 C 234.727 403.768,235.200 403.662,235.200 403.257 C 235.200 402.876,235.565 402.763,236.400 402.885 C 237.060 402.982,237.600 402.889,237.600 402.678 C 237.600 402.462,238.297 402.388,239.200 402.509 C 240.430 402.674,240.800 402.590,240.800 402.144 C 240.800 401.693,241.125 401.625,242.258 401.837 C 243.228 402.019,243.630 401.972,243.458 401.695 C 243.297 401.433,244.130 401.172,245.701 400.991 C 247.075 400.833,248.307 400.535,248.438 400.328 C 248.570 400.121,249.603 399.918,250.735 399.876 C 251.959 399.831,252.795 399.616,252.797 399.345 C 252.799 399.095,253.970 398.670,255.400 398.400 C 256.830 398.130,258.000 397.770,258.000 397.600 C 258.000 397.430,258.810 397.169,259.800 397.021 C 260.790 396.872,261.600 396.602,261.600 396.419 C 261.600 396.236,262.770 395.854,264.200 395.570 C 265.630 395.286,266.800 394.914,266.800 394.745 C 266.800 394.575,267.430 394.318,268.200 394.174 C 268.970 394.029,269.600 393.730,269.600 393.509 C 269.600 393.288,269.960 393.201,270.400 393.316 C 270.840 393.431,271.200 393.362,271.200 393.163 C 271.200 392.963,271.560 392.800,272.000 392.800 C 272.440 392.800,272.800 392.626,272.800 392.413 C 272.800 392.199,273.070 392.129,273.400 392.255 C 273.730 392.382,274.000 392.294,274.000 392.061 C 274.000 391.827,274.630 391.518,275.400 391.374 C 276.170 391.229,276.800 390.930,276.800 390.709 C 276.800 390.488,277.160 390.401,277.601 390.516 C 278.041 390.631,278.300 390.562,278.177 390.363 C 278.054 390.163,278.246 390.000,278.605 390.000 C 278.964 390.000,279.541 389.716,279.888 389.369 C 280.235 389.022,280.829 388.819,281.208 388.918 C 281.587 389.017,282.135 388.768,282.426 388.364 C 282.717 387.960,283.460 387.519,284.078 387.383 C 284.695 387.247,285.200 386.976,285.200 386.781 C 285.200 386.585,285.470 386.529,285.800 386.655 C 286.130 386.782,286.400 386.706,286.400 386.486 C 286.400 386.266,286.850 385.974,287.400 385.836 C 287.950 385.698,288.400 385.422,288.400 385.224 C 288.400 385.026,288.940 384.745,289.600 384.600 C 290.260 384.455,290.800 384.151,290.800 383.925 C 290.800 383.699,291.079 383.622,291.421 383.753 C 291.762 383.884,291.943 383.832,291.824 383.638 C 291.704 383.444,292.054 383.173,292.603 383.035 C 293.151 382.897,293.600 382.622,293.600 382.424 C 293.600 382.226,294.140 381.945,294.800 381.800 C 295.460 381.655,296.000 381.393,296.000 381.217 C 296.000 381.041,296.585 380.658,297.300 380.365 C 298.015 380.073,298.819 379.646,299.086 379.417 C 300.291 378.383,300.679 378.138,301.900 377.637 C 302.615 377.343,303.200 376.945,303.200 376.751 C 303.200 376.558,303.476 376.400,303.813 376.400 C 304.149 376.400,304.522 376.146,304.641 375.836 C 304.761 375.526,305.262 375.171,305.755 375.047 C 306.249 374.923,307.073 374.457,307.587 374.011 C 308.102 373.565,308.765 373.200,309.061 373.200 C 309.358 373.200,309.600 373.016,309.600 372.790 C 309.600 372.565,310.050 372.209,310.600 372.000 C 311.150 371.791,311.600 371.439,311.600 371.218 C 311.600 370.996,312.037 370.706,312.571 370.572 C 313.105 370.437,313.639 370.074,313.759 369.764 C 313.878 369.454,314.251 369.200,314.587 369.200 C 314.924 369.200,315.200 369.011,315.200 368.779 C 315.200 368.548,315.714 368.179,316.343 367.960 C 316.971 367.741,317.723 367.117,318.014 366.573 C 318.310 366.021,318.655 365.766,318.797 365.996 C 318.939 366.226,319.543 365.789,320.170 365.003 C 320.785 364.231,321.473 363.600,321.698 363.600 C 321.924 363.600,322.529 363.146,323.044 362.590 C 323.558 362.035,324.098 361.610,324.244 361.646 C 324.389 361.681,325.564 360.677,326.854 359.413 C 328.144 358.150,329.200 357.269,329.200 357.456 C 329.200 357.644,330.173 356.776,331.363 355.528 C 332.552 354.280,333.626 353.359,333.748 353.481 C 333.870 353.603,334.186 353.230,334.449 352.652 C 334.713 352.073,335.154 351.600,335.430 351.600 C 336.159 351.600,340.399 347.211,340.406 346.448 C 340.411 345.900,340.469 345.890,340.779 346.379 C 341.066 346.833,341.203 346.725,341.416 345.879 C 341.565 345.286,341.937 344.800,342.243 344.800 C 342.550 344.800,342.800 344.620,342.800 344.400 C 342.800 344.180,343.070 344.000,343.400 344.000 C 343.730 344.000,344.000 343.741,344.000 343.425 C 344.000 343.109,345.305 341.535,346.900 339.927 C 348.495 338.319,349.800 336.865,349.800 336.696 C 349.800 336.527,350.475 335.771,351.300 335.015 C 352.125 334.259,352.800 333.441,352.800 333.198 C 352.800 332.954,353.385 332.221,354.100 331.568 C 354.815 330.914,355.400 330.222,355.400 330.029 C 355.400 329.835,355.850 329.253,356.400 328.735 C 356.950 328.217,357.670 327.256,358.000 326.600 C 358.330 325.944,359.005 325.024,359.500 324.557 C 359.995 324.090,360.400 323.498,360.400 323.242 C 360.400 322.985,360.654 322.678,360.963 322.559 C 361.273 322.440,361.740 321.828,362.000 321.200 C 362.260 320.572,362.727 319.960,363.037 319.841 C 363.346 319.722,363.600 319.349,363.600 319.013 C 363.600 318.676,363.789 318.400,364.021 318.400 C 364.252 318.400,364.630 317.860,364.860 317.200 C 365.090 316.540,365.429 316.000,365.612 316.000 C 365.796 316.000,366.074 315.598,366.229 315.108 C 366.540 314.127,368.025 311.878,368.500 311.667 C 368.665 311.593,368.800 311.285,368.800 310.981 C 368.800 310.677,369.175 310.227,369.634 309.982 C 370.093 309.736,370.378 309.444,370.267 309.334 C 369.929 308.996,370.841 306.817,371.280 306.912 C 371.506 306.960,371.763 306.568,371.852 306.039 C 371.941 305.511,372.311 304.861,372.674 304.596 C 373.037 304.330,373.398 303.690,373.477 303.174 C 373.556 302.657,373.771 302.137,373.956 302.017 C 374.141 301.898,374.419 301.395,374.573 300.900 C 374.728 300.405,375.007 300.000,375.195 300.000 C 375.383 300.000,375.652 299.472,375.794 298.828 C 375.936 298.183,376.310 297.441,376.626 297.179 C 376.942 296.917,377.200 296.353,377.200 295.927 C 377.200 295.501,377.378 295.263,377.595 295.397 C 377.822 295.537,377.889 295.377,377.753 295.021 C 377.622 294.679,377.699 294.400,377.925 294.400 C 378.151 294.400,378.452 293.872,378.594 293.228 C 378.736 292.583,379.110 291.841,379.426 291.579 C 379.742 291.317,380.000 290.753,380.000 290.327 C 380.000 289.901,380.163 289.654,380.363 289.777 C 380.562 289.900,380.624 289.613,380.500 289.138 C 380.350 288.567,380.424 288.367,380.717 288.549 C 380.995 288.720,381.258 288.297,381.424 287.411 C 381.570 286.635,381.826 286.000,381.993 286.000 C 382.159 286.000,382.523 285.190,382.800 284.200 C 383.077 283.210,383.461 282.400,383.652 282.400 C 383.843 282.400,384.003 281.995,384.006 281.500 C 384.011 280.754,384.085 280.703,384.438 281.200 C 384.767 281.662,384.810 281.547,384.625 280.700 C 384.493 280.095,384.555 279.600,384.764 279.600 C 384.972 279.600,385.364 278.610,385.635 277.400 C 385.906 276.190,386.279 275.200,386.464 275.200 C 386.649 275.200,386.800 274.840,386.800 274.400 C 386.800 273.960,386.963 273.600,387.163 273.600 C 387.362 273.600,387.424 273.212,387.300 272.737 C 387.145 272.146,387.220 271.965,387.537 272.161 C 387.842 272.349,388.000 272.097,388.000 271.424 C 388.000 270.861,388.135 270.399,388.300 270.398 C 388.465 270.397,388.634 269.740,388.676 268.937 C 388.718 268.134,388.934 267.364,389.157 267.227 C 389.380 267.089,389.684 266.216,389.832 265.288 C 389.981 264.360,390.243 263.600,390.416 263.600 C 390.589 263.600,390.851 262.880,391.000 262.000 C 391.149 261.120,391.455 260.400,391.682 260.400 C 391.908 260.400,391.999 260.040,391.884 259.600 C 391.769 259.161,391.821 258.710,392.000 258.600 C 392.179 258.489,392.449 257.499,392.600 256.400 C 392.751 255.300,393.038 254.400,393.238 254.400 C 393.437 254.400,393.600 253.871,393.600 253.224 C 393.600 252.577,393.763 251.946,393.962 251.823 C 394.162 251.700,394.236 251.260,394.128 250.845 C 394.019 250.430,394.126 249.969,394.365 249.822 C 394.604 249.674,394.800 249.124,394.800 248.600 C 394.800 248.076,394.956 247.551,395.146 247.433 C 395.337 247.315,395.401 246.738,395.288 246.150 C 395.157 245.463,395.234 245.174,395.504 245.341 C 395.783 245.513,395.852 245.063,395.709 244.000 C 395.568 242.949,395.650 242.400,395.947 242.400 C 396.197 242.400,396.400 241.781,396.400 241.024 C 396.400 240.267,396.580 239.536,396.801 239.399 C 397.032 239.257,397.095 238.483,396.950 237.576 C 396.794 236.604,396.855 236.000,397.107 236.000 C 397.601 236.000,398.048 233.340,398.014 230.600 C 397.995 229.062,398.090 228.738,398.425 229.200 C 398.748 229.645,398.797 229.167,398.616 227.348 C 398.414 225.322,398.482 224.854,399.010 224.651 C 399.548 224.445,399.609 223.947,399.395 221.503 C 399.228 219.590,399.273 218.789,399.528 219.154 C 399.953 219.763,399.915 186.434,399.490 185.746 C 399.357 185.530,399.208 184.148,399.161 182.676 C 399.113 181.204,398.954 180.000,398.807 180.000 C 398.660 180.000,398.543 179.415,398.546 178.700 C 398.552 177.469,398.433 176.222,397.773 170.600 C 397.618 169.280,397.313 167.975,397.097 167.700 C 396.880 167.425,396.782 167.200,396.880 167.200 C 396.978 167.200,396.836 165.895,396.563 164.300 C 396.291 162.705,395.765 159.600,395.394 157.400 C 395.023 155.200,394.574 153.220,394.397 153.000 C 394.220 152.780,393.945 151.700,393.787 150.600 C 393.629 149.500,393.358 148.420,393.185 148.200 C 393.013 147.980,392.741 147.080,392.582 146.200 C 392.423 145.320,392.063 144.144,391.781 143.586 C 391.499 143.029,391.140 141.859,390.982 140.986 C 390.825 140.114,390.567 139.220,390.410 139.000 C 390.253 138.780,389.892 137.740,389.607 136.690 C 389.323 135.639,388.935 134.683,388.745 134.566 C 388.555 134.449,388.394 133.958,388.386 133.476 C 388.379 132.994,388.025 131.880,387.600 131.000 C 387.175 130.120,386.815 129.130,386.801 128.800 C 386.786 128.470,386.510 127.851,386.187 127.424 C 385.864 126.996,385.594 126.366,385.586 126.024 C 385.579 125.681,385.225 124.680,384.800 123.800 C 384.375 122.920,384.021 121.997,384.014 121.749 C 384.006 121.501,383.749 121.090,383.442 120.835 C 383.135 120.580,382.767 119.748,382.624 118.986 C 382.481 118.224,382.206 117.600,382.014 117.600 C 381.821 117.600,381.545 117.060,381.400 116.400 C 381.255 115.740,380.971 115.200,380.768 115.200 C 380.566 115.200,380.399 114.975,380.398 114.700 C 380.396 113.973,374.748 102.903,373.613 101.400 C 373.446 101.180,373.192 100.505,373.048 99.900 C 372.903 99.295,372.608 98.800,372.392 98.800 C 372.177 98.800,372.000 98.524,372.000 98.187 C 372.000 97.851,371.741 97.476,371.424 97.354 C 371.108 97.233,370.741 96.640,370.608 96.038 C 370.476 95.436,369.848 94.374,369.213 93.679 C 368.578 92.984,367.931 92.006,367.774 91.507 C 367.618 91.008,367.200 90.216,366.845 89.746 C 366.490 89.277,365.930 88.496,365.600 88.012 C 364.214 85.978,360.203 80.560,359.722 80.071 C 359.435 79.781,359.200 79.346,359.200 79.105 C 359.200 78.864,359.085 78.782,358.944 78.923 C 358.803 79.063,358.398 78.657,358.044 78.019 C 357.422 76.900,355.845 74.963,352.706 71.465 C 351.884 70.549,351.209 69.665,351.206 69.500 C 351.203 69.335,350.942 69.200,350.627 69.200 C 350.312 69.200,349.929 68.795,349.776 68.300 C 349.623 67.805,348.666 66.564,347.649 65.541 C 346.632 64.519,345.086 62.854,344.213 61.841 C 343.340 60.829,342.395 60.000,342.113 60.000 C 341.831 60.000,341.600 59.730,341.600 59.400 C 341.600 59.070,341.465 58.800,341.300 58.800 C 341.135 58.799,339.357 57.224,337.348 55.300 C 332.150 50.318,329.997 48.353,328.399 47.129 C 327.629 46.540,326.280 45.421,325.400 44.642 C 323.095 42.601,323.126 42.625,321.179 41.358 C 320.200 40.722,318.860 39.707,318.200 39.103 C 317.540 38.498,316.878 38.003,316.729 38.002 C 316.579 38.001,316.219 37.775,315.929 37.500 C 315.638 37.225,314.410 36.339,313.200 35.531 C 311.990 34.723,309.932 33.306,308.626 32.383 C 306.320 30.751,305.288 30.114,302.424 28.551 C 301.666 28.138,300.856 27.650,300.624 27.466 C 300.070 27.030,296.863 25.242,293.600 23.549 C 292.170 22.807,290.910 22.108,290.800 21.995 C 290.442 21.627,286.062 19.600,285.625 19.600 C 285.391 19.600,285.200 19.434,285.200 19.232 C 285.200 19.029,284.615 18.737,283.900 18.582 C 283.185 18.426,282.510 18.187,282.400 18.050 C 282.019 17.573,277.717 15.600,277.060 15.600 C 276.697 15.600,276.400 15.443,276.400 15.252 C 276.400 15.061,275.585 14.676,274.590 14.397 C 273.594 14.118,272.693 13.751,272.588 13.580 C 272.482 13.409,271.677 13.148,270.798 13.000 C 269.919 12.851,269.200 12.586,269.200 12.409 C 269.200 12.233,268.578 11.972,267.817 11.830 C 267.056 11.687,265.931 11.308,265.317 10.988 C 264.703 10.667,263.840 10.398,263.400 10.389 C 262.960 10.380,261.880 10.025,261.000 9.600 C 260.120 9.175,258.905 8.821,258.300 8.814 C 257.695 8.806,257.200 8.638,257.200 8.441 C 257.200 8.244,255.988 7.871,254.506 7.613 C 253.025 7.355,251.720 6.995,251.606 6.812 C 251.493 6.629,250.694 6.368,249.832 6.231 C 248.969 6.095,247.349 5.722,246.232 5.404 C 245.114 5.086,243.300 4.712,242.200 4.571 C 241.100 4.431,240.020 4.171,239.800 3.993 C 239.580 3.815,238.140 3.469,236.600 3.224 C 235.060 2.980,232.270 2.524,230.400 2.212 C 228.530 1.899,225.976 1.634,224.724 1.622 C 223.472 1.610,222.347 1.438,222.225 1.241 C 221.899 0.713,193.700 -0.322,193.143 0.174 M219.800 28.559 C 230.033 30.093,231.830 30.428,240.400 32.395 C 244.532 33.343,245.427 33.594,252.600 35.824 C 257.093 37.221,264.798 39.944,266.600 40.771 C 309.163 60.325,341.611 92.107,358.926 131.200 C 360.509 134.773,362.790 140.441,363.595 142.800 C 364.083 144.230,364.631 145.760,364.811 146.200 C 364.992 146.640,365.621 148.620,366.207 150.600 C 366.794 152.580,367.426 154.650,367.612 155.200 C 367.798 155.750,368.062 156.830,368.198 157.600 C 368.335 158.370,368.608 159.360,368.806 159.800 C 369.508 161.361,371.416 171.741,372.188 178.200 C 372.503 180.840,372.950 184.550,373.181 186.445 C 373.728 190.943,373.725 215.590,373.176 219.093 C 372.943 220.582,372.502 223.870,372.197 226.400 C 371.533 231.910,370.831 236.377,370.502 237.200 C 370.369 237.530,369.949 239.240,369.568 241.000 C 369.187 242.760,368.599 245.190,368.261 246.400 C 367.924 247.610,367.303 249.950,366.882 251.600 C 366.128 254.558,362.707 264.685,361.410 267.800 C 358.257 275.373,350.418 290.748,349.513 291.133 C 349.341 291.207,349.200 291.430,349.200 291.630 C 349.200 292.849,341.772 303.518,334.313 313.013 C 327.693 321.442,305.038 343.600,303.042 343.600 C 302.909 343.600,302.485 343.884,302.100 344.232 C 299.695 346.402,289.193 353.600,288.433 353.600 C 288.195 353.600,288.000 353.759,288.000 353.953 C 288.000 354.148,287.685 354.410,287.300 354.536 C 286.915 354.662,285.790 355.248,284.800 355.839 C 279.823 358.809,273.514 361.990,266.200 365.218 C 264.113 366.139,258.070 368.380,257.000 368.630 C 256.340 368.784,255.620 369.045,255.400 369.209 C 255.180 369.373,254.376 369.641,253.613 369.805 C 252.850 369.968,251.950 370.256,251.613 370.444 C 251.276 370.632,249.920 371.073,248.600 371.425 C 247.280 371.777,245.210 372.338,244.000 372.673 C 238.073 374.312,230.097 375.881,224.000 376.607 C 221.470 376.908,218.140 377.344,216.600 377.575 C 209.404 378.656,195.874 378.513,182.200 377.211 C 176.385 376.657,170.296 375.640,163.200 374.035 C 156.347 372.486,155.785 372.347,155.000 372.005 C 154.560 371.814,153.210 371.437,152.000 371.167 C 150.790 370.897,149.530 370.550,149.200 370.396 C 148.870 370.242,147.340 369.713,145.800 369.220 C 141.023 367.691,137.767 366.437,132.000 363.903 C 128.932 362.555,119.923 358.054,117.400 356.608 C 116.080 355.851,114.550 355.000,114.000 354.716 C 112.959 354.179,105.021 348.911,101.200 346.221 C 97.622 343.703,94.760 341.451,91.960 338.951 C 90.511 337.658,87.912 335.340,86.184 333.800 C 80.034 328.321,71.425 319.480,67.096 314.200 C 64.430 310.949,64.650 311.233,59.993 305.000 C 58.021 302.360,56.226 299.983,56.004 299.717 C 55.782 299.451,55.600 299.115,55.600 298.970 C 55.600 298.826,54.997 297.873,54.259 296.854 C 50.446 291.582,42.464 276.170,39.213 267.800 C 38.700 266.480,38.053 264.860,37.775 264.200 C 36.858 262.021,33.200 250.856,33.200 250.236 C 33.200 249.902,32.952 248.857,32.649 247.914 C 32.134 246.314,31.240 242.457,29.839 235.800 C 29.515 234.260,29.135 232.010,28.993 230.800 C 28.852 229.590,28.569 227.945,28.365 227.145 C 26.322 219.141,26.197 180.841,28.203 177.595 C 28.303 177.434,28.655 175.615,28.985 173.551 C 29.804 168.447,31.029 162.299,31.805 159.400 C 32.158 158.080,32.712 155.920,33.034 154.600 C 33.357 153.280,33.782 151.840,33.978 151.400 C 34.175 150.960,34.808 149.070,35.385 147.200 C 37.900 139.056,46.352 120.520,50.432 114.200 C 72.628 79.821,97.121 58.021,130.800 42.669 C 146.236 35.632,166.529 30.113,183.200 28.417 C 185.510 28.182,187.940 27.920,188.600 27.833 C 192.018 27.387,215.648 27.936,219.800 28.559 M194.200 69.044 C 157.129 72.938,132.986 99.416,131.738 137.546 C 131.484 145.301,131.427 145.745,130.537 146.802 C 123.792 154.818,124.848 169.358,132.741 177.142 C 135.510 179.873,139.706 182.400,141.472 182.400 C 143.894 182.400,144.718 183.145,145.598 186.131 C 146.063 187.709,146.703 189.591,147.021 190.314 C 147.340 191.036,147.600 191.822,147.600 192.060 C 147.600 192.896,151.716 201.028,153.341 203.400 C 158.992 211.654,173.035 225.200,175.939 225.200 C 176.156 225.200,176.393 225.343,176.467 225.519 C 176.643 225.940,181.723 228.812,184.000 229.778 C 184.990 230.198,186.520 230.847,187.400 231.220 C 188.280 231.594,189.720 232.028,190.600 232.185 C 191.480 232.343,192.453 232.680,192.761 232.936 C 193.737 233.743,205.319 233.546,208.200 232.673 C 220.525 228.939,227.692 224.499,237.600 214.461 C 242.819 209.173,248.400 202.120,248.400 200.813 C 248.400 200.623,248.535 200.407,248.700 200.333 C 249.041 200.182,252.400 193.579,252.400 193.060 C 252.400 192.873,252.664 192.154,252.986 191.460 C 253.308 190.767,253.751 189.480,253.970 188.600 C 255.402 182.838,255.034 183.412,257.776 182.681 C 262.984 181.293,268.189 177.587,270.216 173.822 C 270.637 173.040,271.121 172.400,271.291 172.400 C 271.461 172.400,271.601 172.175,271.602 171.900 C 271.604 171.625,271.890 170.860,272.238 170.200 C 272.940 168.869,273.935 164.823,274.278 161.904 C 274.758 157.820,272.726 150.743,270.055 147.200 C 269.014 145.819,268.997 145.688,268.763 137.400 C 268.356 122.958,266.601 115.598,260.954 104.655 C 256.957 96.911,248.195 86.500,242.300 82.492 C 241.255 81.781,239.604 80.656,238.630 79.992 C 227.264 72.234,208.304 67.562,194.200 69.044 M158.000 237.453 C 157.670 237.566,157.040 237.817,156.600 238.010 C 156.160 238.204,155.170 238.540,154.400 238.757 C 152.685 239.240,149.681 240.292,148.600 240.789 C 148.160 240.991,146.450 241.773,144.800 242.526 C 137.650 245.788,132.718 248.349,130.380 250.014 C 129.773 250.446,129.159 250.800,129.015 250.800 C 126.431 250.800,109.090 265.225,103.082 272.373 C 101.498 274.258,100.092 275.890,99.959 276.000 C 98.070 277.554,93.017 287.186,92.352 290.500 C 91.632 294.081,96.103 299.789,105.445 307.219 C 112.228 312.614,119.941 318.238,122.697 319.800 C 123.085 320.020,124.482 320.858,125.801 321.662 C 127.121 322.466,129.100 323.546,130.200 324.062 C 131.300 324.578,132.290 325.092,132.400 325.205 C 132.758 325.573,137.138 327.600,137.575 327.600 C 137.809 327.600,138.000 327.780,138.000 328.000 C 138.000 328.220,138.198 328.400,138.440 328.400 C 138.681 328.400,139.446 328.659,140.140 328.975 C 140.833 329.291,142.570 330.023,144.000 330.600 C 145.430 331.177,147.167 331.909,147.860 332.225 C 148.554 332.541,149.373 332.800,149.680 332.800 C 149.988 332.800,150.411 332.954,150.620 333.142 C 150.829 333.330,152.620 333.972,154.600 334.568 C 156.580 335.165,158.632 335.829,159.160 336.045 C 160.045 336.407,161.773 336.839,167.600 338.156 C 168.810 338.430,170.070 338.768,170.400 338.907 C 171.220 339.255,178.570 340.367,183.200 340.844 C 185.290 341.060,187.900 341.422,189.000 341.650 C 191.761 342.223,210.578 341.828,216.600 341.072 C 222.539 340.326,228.547 339.353,230.400 338.836 C 233.124 338.076,235.435 337.526,238.400 336.932 C 240.050 336.602,241.571 336.167,241.780 335.966 C 241.989 335.765,242.529 335.599,242.980 335.598 C 243.431 335.596,244.262 335.354,244.827 335.059 C 245.391 334.765,246.381 334.397,247.027 334.243 C 248.100 333.986,250.756 333.027,253.800 331.795 C 254.460 331.528,256.080 330.881,257.400 330.358 C 269.172 325.691,283.034 317.191,295.800 306.809 C 299.454 303.838,307.570 295.226,307.894 293.976 C 309.644 287.222,299.354 272.207,284.800 260.279 C 283.150 258.926,281.620 257.623,281.400 257.382 C 280.742 256.661,273.697 252.000,273.265 252.000 C 273.046 252.000,272.807 251.850,272.733 251.667 C 272.594 251.318,268.142 248.715,265.400 247.380 C 264.520 246.951,263.740 246.465,263.667 246.300 C 263.593 246.135,263.369 246.000,263.168 246.000 C 262.968 246.000,261.408 245.354,259.702 244.565 C 257.996 243.776,255.610 242.711,254.400 242.198 C 253.190 241.685,251.660 240.982,251.000 240.635 C 250.340 240.289,249.521 240.004,249.180 240.002 C 248.839 240.001,248.389 239.844,248.180 239.653 C 247.653 239.173,241.760 237.200,240.850 237.200 C 240.219 237.200,240.078 237.606,239.914 239.910 C 239.807 241.400,239.528 242.975,239.293 243.410 C 239.058 243.844,238.378 245.190,237.782 246.400 C 235.072 251.896,230.827 255.774,223.245 259.678 C 221.619 260.515,220.042 261.200,219.739 261.200 C 219.437 261.200,218.877 261.367,218.495 261.570 C 212.664 264.678,195.029 265.478,187.400 262.980 C 186.520 262.691,185.123 262.333,184.296 262.182 C 183.468 262.032,182.693 261.750,182.572 261.555 C 182.451 261.360,182.066 261.200,181.715 261.200 C 180.502 261.200,174.560 258.265,171.646 256.227 C 166.867 252.884,162.178 247.165,161.343 243.661 C 161.204 243.078,160.945 242.415,160.769 242.188 C 160.592 241.961,160.392 240.791,160.324 239.588 C 160.196 237.327,159.700 236.872,158.000 237.453 M166.595 404.408 C 165.935 405.476,167.447 405.952,168.805 405.104 C 169.438 404.709,169.762 404.709,170.395 405.104 C 171.320 405.682,172.400 405.757,172.400 405.243 C 172.400 404.507,167.013 403.732,166.595 404.408 M182.162 406.062 C 181.976 406.362,182.053 406.414,182.383 406.211 C 182.678 406.028,183.035 406.128,183.239 406.449 C 183.515 406.885,183.589 406.854,183.594 406.300 C 183.601 405.516,182.602 405.349,182.162 406.062 M210.000 406.800 C 209.545 407.094,209.714 407.189,210.700 407.194 C 211.415 407.197,212.000 407.020,212.000 406.800 C 212.000 406.292,210.786 406.292,210.000 406.800 "
       stroke="none"
       fill="#83837b"
       fill-rule="evenodd"
       style="fill:#a067ca;fill-opacity:1" />
  </g>
</svg>
